<svg width="19" height="19" viewBox="0 0 19 19" fill="none" xmlns="http://www.w3.org/2000/svg">
<path d="M10.375 16.4457C12.1401 16.2212 13.7535 15.3329 14.8872 13.9614C16.0209 12.59 16.5899 10.8383 16.4785 9.06248C16.367 7.28661 15.5836 5.6198 14.2873 4.40083C12.9911 3.18186 11.2794 2.50221 9.5 2.5C7.71846 2.49867 6.00346 3.17667 4.70442 4.39584C3.40539 5.61502 2.62009 7.28362 2.50853 9.06166C2.39697 10.8397 2.96754 12.5934 4.104 13.9654C5.24046 15.3373 6.85727 16.2244 8.625 16.4457V11.25H6.875V9.5H8.625V8.05275C8.625 6.88287 8.7475 6.4585 8.975 6.03062C9.1991 5.60729 9.54547 5.26123 9.969 5.0375C10.3033 4.85813 10.7189 4.7505 11.4451 4.70412C11.733 4.68575 12.1058 4.7085 12.5634 4.77413V6.43662H12.125C11.3226 6.43662 10.991 6.47425 10.7933 6.58012C10.6753 6.64081 10.5792 6.73688 10.5185 6.85488C10.4135 7.05263 10.375 7.24863 10.375 8.05188V9.5H12.5625L12.125 11.25H10.375V16.4457ZM9.5 18.25C4.66738 18.25 0.75 14.3326 0.75 9.5C0.75 4.66738 4.66738 0.75 9.5 0.75C14.3326 0.75 18.25 4.66738 18.25 9.5C18.25 14.3326 14.3326 18.25 9.5 18.25Z" fill="#354BB4"/>
</svg>
