<svg width="454" height="306" viewBox="0 0 454 306" fill="none" xmlns="http://www.w3.org/2000/svg">
<path d="M24.2283 299.908L32.2504 288.601C32.8037 287.774 33.6336 287.498 34.4635 287.498C35.2933 287.498 36.1232 288.05 36.6765 288.877L43.0389 300.184H69.5951V276.192C69.5951 274.813 70.7016 273.71 72.0847 273.71H75.4043V270.401C75.4043 269.573 75.9575 268.746 76.5108 268.194V263.231C76.5108 261.852 77.6173 260.749 79.0004 260.749C80.3836 260.749 81.4901 261.852 81.4901 263.231V267.643H86.4693V248.063C86.4693 247.236 86.746 246.409 87.5758 245.857L92.2785 242.548V201.734C92.2785 200.355 93.385 199.252 94.7682 199.252H101.131L114.685 156.783C114.962 155.68 116.068 155.129 117.175 155.129C118.281 155.129 119.388 155.956 119.665 157.059L131.283 199.528H137.645C139.029 199.528 140.135 200.631 140.135 202.01V241.169L144.284 245.305C144.838 245.857 145.114 246.409 145.114 247.236V267.091H149.54V262.955C149.54 261.576 150.647 260.473 152.03 260.473C153.413 260.473 154.52 261.576 154.52 262.955V267.367C155.349 267.919 155.903 268.746 155.903 269.573V273.71H158.669C160.052 273.71 161.159 274.813 161.159 276.192V297.426C166.138 294.117 175.267 288.877 183.565 288.326V284.465C183.565 283.086 184.672 281.983 186.055 281.983H205.696C207.079 281.983 208.185 283.086 208.185 284.465V288.05H216.207C216.761 288.05 217.037 288.05 217.591 288.326L222.846 291.359L227.549 286.395V276.192C226.166 274.537 223.123 270.125 223.676 264.058C224.506 255.509 231.699 247.236 244.7 238.963V231.241C244.7 229.862 245.807 228.759 247.19 228.759C248.573 228.759 249.679 229.862 249.679 231.241V238.963L254.382 241.445C256.872 240.617 264.617 237.032 266.277 225.45C266.554 224.347 267.383 223.244 268.767 223.244C269.873 222.968 270.98 224.071 271.533 225.174C271.809 226.002 271.809 226.829 271.809 227.932L271.848 228.331C272.101 231.007 272.403 234.196 278.725 238.135C284.69 226.037 295.244 202.96 301.174 189.993L301.176 189.988C303.22 185.52 304.714 182.252 305.281 181.051V164.505C303.898 163.126 301.409 160.368 300.855 156.232C300.025 149.889 303.622 142.443 311.367 134.446V129.482C311.367 128.103 312.474 127 313.857 127C315.24 127 316.346 128.103 316.346 129.482V134.17C324.092 142.719 327.412 150.44 326.582 157.059C326.028 160.92 324.092 163.402 322.709 164.505V182.154L356.734 247.512C361.16 243.651 370.565 235.378 373.055 233.172C375.268 231.241 377.758 224.898 378.864 221.313C379.141 220.21 380.247 219.383 381.354 219.383C382.46 219.383 383.567 220.21 383.843 221.038C385.503 226.277 387.993 230.414 389.376 231.517L407.08 210.558V205.043C407.08 203.664 408.187 202.561 409.57 202.561C410.953 202.561 412.059 203.664 412.059 205.043V210.558L420.635 221.313C423.401 222.968 438.062 232.62 439.445 245.857C440.275 252.751 437.509 259.094 431.147 265.161V299.632H453.553C453.759 300.197 454.128 301.662 453.955 303.008C453.782 304.354 451.592 304.995 450.518 305.148H428.388C427.005 305.148 425.898 304.045 425.898 302.666V264.61C425.898 263.782 426.175 263.231 426.728 262.679C432.261 257.715 434.75 252.2 434.197 246.96C432.814 235.102 417.599 226.002 417.599 226.002C417.461 225.864 417.323 225.795 417.184 225.726C417.046 225.657 416.908 225.588 416.769 225.45L409.301 216.074L392.426 236.205C392.288 236.343 392.08 236.481 391.873 236.619C391.665 236.757 391.458 236.895 391.32 237.033C386.894 238.411 383.574 233.999 381.361 229.587C379.978 232.62 378.318 235.654 376.382 237.584C375.075 238.742 371.786 241.572 368.316 244.558C365.176 247.26 361.887 250.09 359.784 251.924C363.934 255.785 371.679 264.058 371.403 274.261C371.126 281.432 366.7 288.05 358.401 293.565V302.942C358.401 304.321 357.295 305.424 355.911 305.424C354.528 305.424 353.422 304.321 353.422 302.942V292.462V292.187V291.635C353.422 291.359 353.422 291.359 353.698 291.083C353.698 290.808 353.975 290.808 353.975 290.808L354.252 290.532C354.252 290.532 354.252 290.256 354.528 290.256C361.997 285.568 366.147 280.053 366.423 274.261C366.977 263.506 354.528 254.13 354.528 254.13L353.698 253.303L318.014 184.36C317.737 184.085 317.737 183.533 317.737 183.257V163.678C317.737 162.85 318.29 162.023 318.843 161.471C318.843 161.471 321.056 159.817 321.61 156.508C321.886 153.474 321.056 148.234 314.694 140.237C314.556 140.237 314.417 140.306 314.279 140.375C314.141 140.444 314.002 140.513 313.864 140.513H313.311C306.672 147.959 305.565 153.198 305.842 156.232C306.395 160.093 309.162 161.747 309.162 161.747C309.991 162.299 310.545 163.126 310.545 163.953V182.982C310.545 183.257 310.545 183.809 310.268 184.085C310.23 184.161 309.816 185.071 309.109 186.623C304.709 196.294 288.965 230.895 282.052 244.203C281.775 244.754 281.222 245.306 280.392 245.581C279.839 245.857 279.009 245.581 278.456 245.306C272.923 242.548 270.157 239.514 268.497 237.033C263.795 246.133 255.219 248.063 254.666 248.063C254.113 248.063 253.559 248.063 253.006 247.788L247.197 244.754C232.812 253.855 229.216 261.025 228.663 265.713C228.11 270.952 231.429 274.261 231.706 274.537C232.259 275.089 232.536 275.64 232.536 276.468V288.602C232.536 289.153 232.259 289.98 231.706 290.256L225.067 297.426C224.237 298.254 222.854 298.529 222.024 297.978L215.385 294.117H205.703C204.32 294.117 203.213 293.014 203.213 291.635V288.05H188.829V291.635C188.829 292.462 188.552 293.014 187.999 293.565C187.644 293.919 187.176 294.046 186.74 294.164C186.495 294.23 186.261 294.294 186.063 294.393C176.464 293.914 164.16 302.566 160.886 304.868L160.886 304.868C160.386 305.22 160.096 305.424 160.06 305.424C159.23 305.975 158.123 306.251 157.293 305.699C156.463 305.148 155.91 304.32 155.91 303.493V279.777H153.144C151.761 279.777 150.654 278.674 150.654 277.295V273.986C150.562 273.894 150.439 273.802 150.316 273.71L150.316 273.71C150.07 273.526 149.824 273.342 149.824 273.158H142.355C140.972 273.158 139.866 272.055 139.866 270.676V249.166L135.716 245.03C135.163 244.478 134.887 243.927 134.887 243.099V205.319H129.077C127.971 205.319 126.864 204.492 126.588 203.389L116.629 167.263L105.011 203.113C104.734 204.216 103.628 204.767 102.521 204.767H96.712V244.203C96.712 245.03 96.4354 245.857 95.6055 246.409L90.9029 249.718V270.401C90.9029 271.78 89.7963 272.883 88.4132 272.883H80.1144C80.1144 273.158 79.8378 273.158 79.5611 273.158V276.192C79.5611 277.571 78.4547 278.674 77.0715 278.674H73.752V302.666C73.752 304.045 72.6455 305.148 71.2623 305.148H40.8334C40.0035 305.148 39.1736 304.596 38.6203 303.769L33.6411 294.944L27.2786 304.045C26.7254 304.596 25.8955 305.148 25.0656 305.148H2.65884C1.82857 304.959 0.135614 304.202 0.00594522 302.682C-0.123724 301.162 1.89993 300.016 2.92797 299.632H24.2283V299.908Z" fill="#1A2D84"/>
<path d="M380.594 36.9669C403.488 59.8616 403.488 96.9812 380.594 119.876C357.699 142.771 320.579 142.771 297.684 119.876C274.79 96.9812 274.79 59.8616 297.684 36.9669C320.579 14.0722 357.699 14.0722 380.594 36.9669Z" stroke="white"/>
<path d="M341.029 4.83532L340.374 14.2486L341.589 14.3331L341.896 9.91975L346.449 10.2364L346.142 14.6498L347.371 14.7352L348.026 5.32198L346.797 5.2365L346.523 9.17499L341.97 8.85832L342.244 4.91983L341.029 4.83532Z" fill="white"/>
<path d="M355.261 13.1954L355.6 16.3115L356.871 16.5943L355.778 6.68415L354.343 6.36477L349.163 14.8788L350.393 15.1526L351.995 12.4684L355.261 13.1954ZM352.447 11.5939L353.942 9.12985C354.245 8.6091 354.52 8.08227 354.778 7.56606L354.806 7.57215C354.824 8.13552 354.839 8.71256 354.91 9.35947L355.222 12.2113L352.447 11.5939Z" fill="white"/>
<path d="M362.528 8.42687L359.114 17.2236L360.25 17.6643L363.294 9.82032L367.379 11.4058L364.335 19.2497L365.47 19.6904L368.884 10.8937L362.528 8.42687Z" fill="white"/>
<path d="M367.859 20.777L368.921 21.3731L370.771 18.0769C370.981 18.275 371.267 18.4516 371.585 18.6298C372.622 19.2123 373.709 19.421 374.607 19.138C375.261 18.9437 375.81 18.4811 376.228 17.7363C376.639 17.0038 376.706 16.2549 376.474 15.6107C376.232 14.8971 375.6 14.2212 374.55 13.6319C373.696 13.1522 372.983 12.8486 372.423 12.6462L367.859 20.777ZM373.053 14.0115C373.264 14.0655 373.638 14.2276 374.102 14.488C375.274 15.1458 375.748 16.1025 375.139 17.189C374.501 18.3244 373.371 18.5084 372.089 17.7889C371.735 17.5902 371.455 17.4013 371.258 17.2101L373.053 14.0115Z" fill="white"/>
<path d="M380.838 25.5593L379.842 28.5313L380.878 29.3201L384.033 19.862L382.863 18.9715L374.596 24.5365L375.598 25.2999L378.176 23.5322L380.838 25.5593ZM378.953 22.9275L381.342 21.3152C381.835 20.9688 382.305 20.6054 382.756 20.2447L382.778 20.2617C382.559 20.7809 382.331 21.3112 382.125 21.9286L381.215 24.6492L378.953 22.9275Z" fill="white"/>
<path d="M382.589 30.7873C382.835 31.1149 383.249 31.6114 383.841 32.2075C384.926 33.3004 385.874 33.8582 386.765 33.901C387.428 33.9133 388.092 33.7079 388.668 33.1358C389.662 32.1494 389.449 30.8815 388.976 30.0878L388.996 30.0681C389.955 30.5171 390.945 30.3821 391.591 29.741C392.118 29.2182 392.308 28.615 392.221 28.0108C392.145 27.2582 391.741 26.5538 390.883 25.6895C390.282 25.0834 389.63 24.5465 389.176 24.2478L382.589 30.7873ZM389.448 25.6942C389.616 25.8037 389.872 26.0026 390.267 26.4C391.135 27.2743 391.419 28.1762 390.634 28.9554C389.988 29.5965 388.978 29.5335 388.071 28.6194L387.292 27.8345L389.448 25.6942ZM386.636 28.4855L387.346 29.2009C388.283 30.1447 388.685 31.3044 387.771 32.2119C386.797 33.1785 385.651 32.6793 384.763 31.7852C384.457 31.4772 384.22 31.2189 384.083 31.0204L386.636 28.4855Z" fill="white"/>
<path d="M396.443 31.7924L393.253 34.1664C392.041 35.0692 390.528 36.108 389.481 35.9446C389.179 35.8903 388.765 35.7096 388.483 35.4482L387.789 36.1568C388.115 36.5948 388.621 36.8991 389.009 37.0461C390.522 37.578 392.403 36.2829 394.043 35.0625L396.334 33.3572L398.198 35.8617L391.448 40.8854L392.184 41.8737L399.753 36.2398L396.443 31.7924Z" fill="white"/>
<path d="M401.107 46.2345L399.323 43.0293L401.929 41.5794L403.815 44.968L404.708 44.4711L402.23 40.0181L393.984 44.6063L396.564 49.2428L397.457 48.7459L395.47 45.1737L398.442 43.5195L400.226 46.7247L401.107 46.2345Z" fill="white"/>
<path d="M406.352 47.728L397.568 51.1751L398.013 52.3089L402.132 50.6928L403.799 54.9414L399.681 56.5575L400.131 57.7043L408.914 54.2573L408.464 53.1104L404.789 54.5527L403.122 50.3041L406.797 48.8619L406.352 47.728Z" fill="white"/>
<path d="M410.125 57.9369L400.907 59.9519L401.185 61.2238L406.398 63.1082C407.561 63.5131 408.765 63.9091 409.876 64.1392L409.871 64.1832C408.688 64.3416 407.591 64.5671 406.1 64.8929L402.175 65.7509L402.42 66.8725L411.638 64.8575L411.378 63.6676L405.98 61.7234C404.74 61.2924 403.616 60.9362 402.557 60.6804L402.564 60.6501C403.813 60.4631 405.023 60.2273 406.486 59.9075L410.37 59.0584L410.125 57.9369Z" fill="white"/>
<path d="M412.406 69.5999L402.984 70.1094L403.054 71.4095L407.897 74.1059C408.98 74.6923 410.105 75.2764 411.164 75.6818L411.153 75.7245C409.959 75.6909 408.84 75.7374 407.316 75.8198L403.304 76.0367L403.366 77.1831L412.788 76.6736L412.723 75.4573L407.707 72.6721C406.551 72.0476 405.499 71.5156 404.495 71.0932L404.507 71.0645C405.77 71.0803 407.002 71.0418 408.498 70.9609L412.468 70.7462L412.406 69.5999ZM414.471 71.2408C413.553 71.3605 413.009 71.9367 413.071 73.0831C413.135 74.2713 413.739 74.7995 414.665 74.8195L414.614 73.8829C414.15 73.8519 413.736 73.7201 413.702 73.077C413.666 72.42 414.092 72.2567 414.522 72.1774L414.471 71.2408Z" fill="white"/>
<path d="M401.832 91.952L407.103 89.8704L411.145 93.4733L411.381 92.0933L409.418 90.451C408.883 90.0045 408.496 89.6968 407.989 89.3402L407.996 89.2988C408.535 89.1353 409.049 88.9534 409.715 88.7122L412.106 87.8568L412.344 86.463L407.281 88.4097L403.062 84.7623L402.826 86.1423L404.677 87.6093C405.409 88.2315 405.861 88.5786 406.354 88.9329L406.349 88.9605C405.761 89.1582 405.199 89.3745 404.33 89.723L402.071 90.5582L401.832 91.952Z" fill="white"/>
<path d="M410.421 96.7252L401.468 93.7448L401.057 94.9801L404.574 99.2643C405.367 100.207 406.199 101.163 407.036 101.928L407.01 101.964C405.912 101.495 404.853 101.128 403.405 100.646L399.593 99.3769L399.231 100.466L408.183 103.447L408.568 102.291L404.923 97.8607C404.077 96.8561 403.293 95.9754 402.513 95.2142L402.536 95.1921C403.705 95.6697 404.865 96.0854 406.286 96.5586L410.058 97.8144L410.421 96.7252Z" fill="white"/>
<path d="M397.994 103.542L397.445 104.63L400.82 106.332C400.632 106.55 400.468 106.844 400.304 107.169C399.768 108.232 399.608 109.327 399.93 110.211C400.153 110.856 400.64 111.384 401.402 111.768C402.152 112.147 402.904 112.181 403.537 111.92C404.239 111.647 404.886 110.985 405.428 109.91C405.87 109.035 406.141 108.31 406.319 107.741L397.994 103.542ZM404.983 108.431C404.938 108.644 404.793 109.025 404.553 109.5C403.948 110.7 403.013 111.217 401.901 110.656C400.738 110.069 400.504 108.948 401.166 107.635C401.349 107.273 401.525 106.985 401.708 106.78L404.983 108.431Z" fill="white"/>
<path d="M402.421 115.554L395.408 114.53C395.16 114.495 395.028 114.439 394.911 114.239C394.525 113.615 394.078 112.611 394.622 111.796C394.741 111.623 394.832 111.515 394.911 111.451L394.164 110.783C394.031 110.878 393.88 111.046 393.706 111.3C393.229 111.992 393.163 112.779 393.447 113.723C393.8 114.766 394.654 116.068 395.398 117.209L398.267 121.583L398.997 120.523L396.557 117.056C396.139 116.479 395.793 116.019 395.484 115.603L395.5 115.58C396.088 115.713 396.665 115.838 397.261 115.96L401.634 116.695L402.421 115.554Z" fill="white"/>
<path d="M389.175 117.945L388.359 118.849L391.164 121.383C390.924 121.544 390.689 121.784 390.445 122.054C389.647 122.937 389.203 123.951 389.281 124.889C389.325 125.57 389.655 126.208 390.289 126.78C390.912 127.343 391.628 127.574 392.308 127.49C393.057 127.412 393.856 126.945 394.663 126.052C395.32 125.325 395.774 124.697 396.095 124.195L389.175 117.945ZM394.624 124.507C394.525 124.701 394.284 125.03 393.927 125.425C393.027 126.423 391.989 126.674 391.064 125.839C390.098 124.966 390.168 123.822 391.153 122.731C391.426 122.43 391.672 122.2 391.902 122.049L394.624 124.507Z" fill="white"/>
<path d="M389.512 131.299L383.316 124.183L382.397 124.982L387.922 131.328L385.061 133.82L385.732 134.59L389.512 131.299Z" fill="white"/>
<path d="M383.683 136.298L378.473 128.431L377.387 129.15L377.514 134.691C377.557 135.922 377.623 137.188 377.81 138.307L377.767 138.319C377.192 137.273 376.585 136.331 375.742 135.059L373.524 131.709L372.567 132.343L377.777 140.21L378.793 139.537L378.655 133.802C378.608 132.489 378.534 131.312 378.39 130.233L378.421 130.229C379.046 131.326 379.703 132.368 380.531 133.617L382.726 136.932L383.683 136.298Z" fill="white"/>
<path d="M373.759 142.554L372.435 139.665C371.472 137.565 369.85 137.724 368.718 138.243C367.967 138.587 367.342 139.105 366.901 139.723L366.876 139.735L365.207 136.095L364.087 136.609L368.02 145.186L369.14 144.672L367.272 140.6C367.589 140.116 368.145 139.615 368.743 139.34C369.952 138.786 370.866 139.168 371.403 140.338L372.652 143.062L373.759 142.554Z" fill="white"/>
<path d="M357.977 144.407L361.486 143.341L362.353 146.194L358.643 147.322L358.94 148.3L363.816 146.818L361.073 137.79L355.996 139.332L356.293 140.31L360.204 139.122L361.193 142.377L357.684 143.443L357.977 144.407Z" fill="white"/>
<path d="M347.911 142.205C348.353 141.888 349.073 141.609 349.804 141.484C352.067 141.097 353.628 142.335 354.018 144.612C354.435 147.055 353.225 148.696 351.044 149.069C350.271 149.201 349.594 149.147 349.101 149.004L348.979 150.033C349.325 150.144 350.099 150.268 351.258 150.07C354.142 149.576 355.778 147.266 355.28 144.354C354.759 141.304 352.502 139.986 349.88 140.434C348.749 140.627 347.903 140.999 347.499 141.295L347.911 142.205Z" fill="white"/>
<path d="M345.816 150.637L345.488 141.207L344.285 141.249L344.435 145.572L344.043 145.586C342.448 145.641 341.817 144.809 341.34 143.579C341.062 142.846 340.767 142.015 340.409 141.384L339.094 141.429C339.543 142.254 339.839 143.112 340.222 144.066C340.756 145.322 341.391 146.252 342.951 146.408L339.534 150.856L341.003 150.805L344.089 146.509L344.467 146.496L344.613 150.679L345.816 150.637Z" fill="white"/>
<path d="M331.908 150.536C334.411 150.826 336.487 149.094 336.833 146.118C337.162 143.281 335.647 141.16 333.172 140.873C330.78 140.595 328.62 142.078 328.245 145.304C327.922 148.085 329.349 150.239 331.908 150.536ZM332.079 149.555C330.062 149.321 329.315 147.261 329.531 145.397C329.778 143.269 331.068 141.629 332.987 141.852C334.892 142.074 335.769 143.993 335.536 145.996C335.297 148.054 334.081 149.787 332.079 149.555Z" fill="white"/>
<path d="M324.126 149.152L326.455 140.009L325.275 139.708L323.198 147.861L319.521 146.925L319.269 147.915L324.126 149.152Z" fill="white"/>
<path d="M313.257 145.985C315.596 146.923 318.053 145.797 319.169 143.017C320.232 140.366 319.327 137.921 317.014 136.994C314.779 136.097 312.306 136.96 311.097 139.975C310.055 142.574 310.866 145.026 313.257 145.985ZM313.679 145.083C311.795 144.328 311.615 142.144 312.313 140.403C313.111 138.414 314.786 137.171 316.579 137.89C318.359 138.604 318.7 140.687 317.95 142.558C317.179 144.481 315.55 145.834 313.679 145.083Z" fill="white"/>
<path d="M301.047 139.786L306.486 132.074L305.491 131.372L300.641 138.248L297.06 135.723L301.91 128.847L300.914 128.145L295.476 135.856L301.047 139.786Z" fill="white"/>
<path d="M298.989 126.637L298.1 125.804L295.516 128.563C295.36 128.32 295.124 128.081 294.858 127.832C293.99 127.018 292.984 126.556 292.045 126.616C291.363 126.649 290.72 126.967 290.136 127.59C289.562 128.203 289.317 128.914 289.389 129.595C289.453 130.346 289.906 131.153 290.785 131.976C291.5 132.646 292.119 133.111 292.615 133.442L298.989 126.637ZM292.329 131.966C292.138 131.863 291.813 131.616 291.424 131.252C290.444 130.334 290.211 129.291 291.063 128.382C291.953 127.432 293.095 127.523 294.168 128.528C294.464 128.805 294.69 129.056 294.837 129.288L292.329 131.966Z" fill="white"/>
<path d="M282.837 123.66C284.4 125.636 287.092 125.881 289.442 124.023C291.683 122.252 292.113 119.681 290.567 117.726C289.074 115.837 286.499 115.357 283.951 117.371C281.755 119.108 281.239 121.639 282.837 123.66ZM283.651 123.087C282.392 121.495 283.322 119.51 284.794 118.347C286.474 117.018 288.546 116.772 289.744 118.288C290.934 119.792 290.194 121.769 288.613 123.019C286.988 124.304 284.902 124.668 283.651 123.087Z" fill="white"/>
<path d="M276.239 114.426L276.973 114.018C277.956 115.554 279.984 116.924 282.688 115.42C285.294 113.97 285.238 111.71 284.388 109.924L285.159 109.495L284.587 108.467L283.816 108.896C282.745 107.201 280.787 106.015 278.194 107.459C275.6 108.902 275.515 111.224 276.408 113.002L275.674 113.411L276.239 114.426ZM283.623 110.334C284.174 111.613 283.996 113.25 282.026 114.346C279.885 115.537 278.411 114.644 277.75 113.601L283.623 110.334ZM277.185 112.586C276.586 111.365 276.678 109.744 278.794 108.566C280.837 107.43 282.299 108.186 283.058 109.318L277.185 112.586Z" fill="white"/>
<path d="M272.66 106.745L281.543 103.563L281.104 102.337L275.693 101.138C274.487 100.886 273.242 100.648 272.111 100.562L272.11 100.518C273.263 100.209 274.322 99.8442 275.759 99.3297L279.541 97.9748L279.154 96.894L270.271 100.076L270.682 101.223L276.284 102.458C277.57 102.726 278.73 102.935 279.814 103.052L279.81 103.083C278.595 103.429 277.426 103.818 276.016 104.323L272.273 105.664L272.66 106.745Z" fill="white"/>
<path d="M268.817 95.0193L272.722 94.2744C274.208 93.9911 276.022 93.7162 276.893 94.3198C277.141 94.5005 277.434 94.8436 277.574 95.2018L278.508 94.8669C278.406 94.3306 278.083 93.8362 277.798 93.5344C276.668 92.3958 274.411 92.7408 272.403 93.1238L269.598 93.6589L269.013 90.5922L277.278 89.0157L277.047 87.8056L267.778 89.5735L268.817 95.0193Z" fill="white"/>
<path d="M276.52 83.9226C276.262 83.7944 276.063 83.7336 275.82 83.6467C274.91 83.3525 273.513 83.151 272.826 82.5381C272.475 82.218 272.329 81.7903 272.301 81.203L272.26 80.3079L276.344 80.1187L276.287 78.902L266.987 79.333C266.89 79.9541 266.859 80.7965 266.896 81.5936C266.951 82.7823 267.245 83.6937 267.748 84.259C268.206 84.7704 268.879 85.0755 269.704 85.0373C270.991 84.9777 271.787 84.0158 271.929 82.846L271.971 82.844C272.068 83.1198 272.249 83.3917 272.483 83.6051C273.288 84.3387 274.614 84.5295 275.71 84.8851C276.022 84.9828 276.322 85.095 276.58 85.2232L276.52 83.9226ZM271.323 80.3513C271.348 80.5884 271.366 80.98 271.385 81.3856C271.446 82.7142 270.836 83.7515 269.703 83.804C268.402 83.8643 267.894 82.8648 267.838 81.6621C267.813 81.1167 267.864 80.7218 267.897 80.5101L271.323 80.3513Z" fill="white"/>
<path d="M324.083 68.6029V90.1309H318.655V95.4209H336.227V90.1309H330.661V63.2209H319.299V68.6029H324.083ZM361.85 63.2209H339.034V69.2009H352.604L341.196 95.4209H348.142L361.85 64.1869V63.2209Z" fill="white"/>
</svg>
