<svg width="19" height="15" viewBox="0 0 19 15" fill="none" xmlns="http://www.w3.org/2000/svg">
<path d="M16.1553 3.12063C16.0888 2.85987 15.8997 2.663 15.6836 2.60262C15.3012 2.495 13.4375 2.25 9.5 2.25C5.5625 2.25 3.7005 2.495 3.31463 2.60262C3.10113 2.66212 2.91213 2.859 2.84475 3.12063C2.74938 3.49162 2.5 5.0465 2.5 7.5C2.5 9.9535 2.74938 11.5075 2.84475 11.8803C2.91125 12.1401 3.10025 12.337 3.3155 12.3965C3.7005 12.505 5.5625 12.75 9.5 12.75C13.4375 12.75 15.3004 12.505 15.6854 12.3974C15.8989 12.3379 16.0879 12.141 16.1553 11.8794C16.2506 11.5084 16.5 9.95 16.5 7.5C16.5 5.05 16.2506 3.4925 16.1553 3.12063ZM17.8501 2.68575C18.25 4.245 18.25 7.5 18.25 7.5C18.25 7.5 18.25 10.755 17.8501 12.3143C17.6279 13.1761 16.9777 13.8542 16.1544 14.0835C14.659 14.5 9.5 14.5 9.5 14.5C9.5 14.5 4.34363 14.5 2.84562 14.0835C2.01875 13.8507 1.3695 13.1735 1.14988 12.3143C0.75 10.755 0.75 7.5 0.75 7.5C0.75 7.5 0.75 4.245 1.14988 2.68575C1.37213 1.82388 2.02225 1.14575 2.84562 0.9165C4.34363 0.5 9.5 0.5 9.5 0.5C9.5 0.5 14.659 0.5 16.1544 0.9165C16.9812 1.14925 17.6305 1.8265 17.8501 2.68575ZM7.75 10.5625V4.4375L13 7.5L7.75 10.5625Z" fill="#354BB4"/>
</svg>
