<svg width="123" height="43" viewBox="0 0 123 43" fill="none" xmlns="http://www.w3.org/2000/svg">
<path d="M1.86007 16.2716L2.44007 15.4578C2.48007 15.3983 2.54007 15.3784 2.60007 15.3784C2.66007 15.3784 2.72007 15.4181 2.76007 15.4777L3.22007 16.2914H5.14007V14.5647C5.14007 14.4655 5.22007 14.3861 5.32007 14.3861H5.56007V14.1479C5.56007 14.0884 5.60007 14.0288 5.64007 13.9891V13.6319C5.64007 13.5326 5.72007 13.4532 5.82007 13.4532C5.92007 13.4532 6.00007 13.5326 6.00007 13.6319V13.9494H6.36007V12.5403C6.36007 12.4807 6.38007 12.4212 6.44007 12.3815L6.78007 12.1433V9.20591C6.78007 9.10668 6.86007 9.02729 6.96007 9.02729H7.42007L8.40007 5.9708C8.42007 5.89141 8.50007 5.85172 8.58007 5.85172C8.66007 5.85172 8.74007 5.91126 8.76007 5.99065L9.60007 9.04713H10.0601C10.1601 9.04713 10.2401 9.12652 10.2401 9.22576V12.0441L10.5401 12.3418C10.5801 12.3815 10.6001 12.4212 10.6001 12.4807V13.9097H10.9201V13.612C10.9201 13.5128 11.0001 13.4334 11.1001 13.4334C11.2001 13.4334 11.2801 13.5128 11.2801 13.612V13.9296C11.3401 13.9693 11.3801 14.0288 11.3801 14.0884V14.3861H11.5801C11.6801 14.3861 11.7601 14.4655 11.7601 14.5647V16.0929C12.1201 15.8548 12.7801 15.4777 13.3801 15.438V15.1601C13.3801 15.0609 13.4601 14.9815 13.5601 14.9815H14.9801C15.0801 14.9815 15.1601 15.0609 15.1601 15.1601V15.4181H15.7401C15.7801 15.4181 15.8001 15.4181 15.8401 15.438L16.2201 15.6563L16.5601 15.299V14.5647C16.4601 14.4456 16.2401 14.1281 16.2801 13.6914C16.3401 13.0761 16.8601 12.4807 17.8001 11.8853V11.3296C17.8001 11.2303 17.8801 11.151 17.9801 11.151C18.0801 11.151 18.1601 11.2303 18.1601 11.3296V11.8853L18.5001 12.0639C18.6801 12.0044 19.2401 11.7464 19.3601 10.9128C19.3801 10.8334 19.4401 10.754 19.5401 10.754C19.6201 10.7342 19.7001 10.8135 19.7401 10.8929C19.7601 10.9525 19.7601 11.012 19.7601 11.0914C19.7801 11.2899 19.7801 11.528 20.2601 11.8258C20.8401 10.6548 22.0201 8.05477 22.1801 7.71736V6.52652C22.0801 6.42729 21.9001 6.22881 21.8601 5.9311C21.8001 5.47462 22.0601 4.93874 22.6201 4.36317V4.00591C22.6201 3.90668 22.7001 3.82729 22.8001 3.82729C22.9001 3.82729 22.9801 3.90668 22.9801 4.00591V4.34332C23.5401 4.95858 23.7801 5.51431 23.7201 5.99065C23.6801 6.26851 23.5401 6.44713 23.4401 6.52652V7.79675L25.9001 12.5006C26.2201 12.2227 26.9001 11.6273 27.0801 11.4685C27.2401 11.3296 27.4201 10.8731 27.5001 10.6151C27.5201 10.5357 27.6001 10.4761 27.6801 10.4761C27.7601 10.4761 27.8401 10.5357 27.8601 10.5952C27.9801 10.9723 28.1601 11.27 28.2601 11.3494L29.5401 9.84103V9.44408C29.5401 9.34484 29.6201 9.26546 29.7201 9.26546C29.8201 9.26546 29.9001 9.34484 29.9001 9.44408V9.84103L30.5201 10.6151C30.7201 10.7342 31.7801 11.4288 31.8801 12.3815C31.9401 12.8777 31.7401 13.3342 31.2801 13.7708V16.2517H32.9001L36.5001 9.42423C32.9601 3.96622 26.8001 0.354004 19.8001 0.354004C10.1401 0.354004 2.10007 7.18149 0.320068 16.2517H1.86007V16.2716Z" fill="#3D4FA2"/>
<path d="M31.22 16.6485C31.12 16.6485 31.04 16.5691 31.04 16.4699V13.7309C31.04 13.6714 31.06 13.6317 31.1 13.592C31.5 13.2347 31.68 12.8378 31.64 12.4607C31.54 11.6073 30.44 10.9523 30.44 10.9523C30.42 10.9325 30.4 10.9325 30.38 10.9126L29.84 10.2378L28.62 11.6867C28.6 11.7065 28.56 11.7264 28.54 11.7462C28.22 11.8454 27.98 11.5279 27.82 11.2103C27.72 11.4286 27.6 11.647 27.46 11.7859C27.28 11.9447 26.58 12.5401 26.26 12.818C26.56 13.0958 27.12 13.6912 27.1 14.4256C27.08 14.9416 26.76 15.418 26.16 15.8149V16.4897C26.16 16.5889 26.08 16.6683 25.98 16.6683C25.88 16.6683 25.8 16.5889 25.8 16.4897V15.7355V15.7157C25.8 15.6958 25.8 15.6958 25.8 15.676C25.8 15.6561 25.8 15.6561 25.82 15.6363C25.82 15.6164 25.84 15.6164 25.84 15.6164L25.86 15.5966C25.86 15.5966 25.86 15.5767 25.88 15.5767C26.42 15.2393 26.72 14.8424 26.74 14.4256C26.78 13.6515 25.88 12.9767 25.88 12.9767C25.86 12.9569 25.84 12.937 25.82 12.9172L23.24 7.95536C23.22 7.93551 23.22 7.89582 23.22 7.87597V6.46681C23.22 6.40727 23.26 6.34772 23.3 6.30803C23.3 6.30803 23.46 6.18895 23.5 5.95078C23.52 5.73246 23.46 5.35536 23 4.77979C22.98 4.77979 22.96 4.79963 22.94 4.79963C22.92 4.79963 22.9 4.79963 22.9 4.79963C22.42 5.33551 22.34 5.71261 22.36 5.93093C22.4 6.20879 22.6 6.32788 22.6 6.32788C22.66 6.36757 22.7 6.42711 22.7 6.48666V7.85612C22.7 7.87597 22.7 7.91567 22.68 7.93551C22.66 7.97521 21.22 11.1508 20.64 12.2622C20.62 12.3019 20.58 12.3416 20.52 12.3615C20.48 12.3813 20.42 12.3615 20.38 12.3416C19.98 12.1431 19.78 11.9248 19.66 11.7462C19.32 12.4012 18.7 12.5401 18.66 12.5401C18.62 12.5401 18.58 12.5401 18.54 12.5202L18.12 12.3019C17.08 12.9569 16.82 13.4729 16.78 13.8103C16.74 14.1874 16.98 14.4256 17 14.4454C17.04 14.4851 17.06 14.5248 17.06 14.5844V15.4576C17.06 15.4973 17.04 15.5569 17 15.5767L16.52 16.0928C16.46 16.1523 16.36 16.1722 16.3 16.1325L15.82 15.8546H15.12C15.02 15.8546 14.94 15.7752 14.94 15.676V15.418H13.9V15.676C13.9 15.7355 13.88 15.7752 13.84 15.8149C13.8 15.8546 13.74 15.8546 13.7 15.8744C12.9 15.8348 11.84 16.6683 11.82 16.6683C11.76 16.708 11.68 16.7279 11.62 16.6882C11.56 16.6485 11.52 16.5889 11.52 16.5294V14.8225H11.32C11.22 14.8225 11.14 14.7431 11.14 14.6439V14.4057C11.12 14.3859 11.08 14.366 11.08 14.3462H10.54C10.44 14.3462 10.36 14.2668 10.36 14.1676V12.6195L10.06 12.3218C10.02 12.2821 10 12.2424 10 12.1828V9.46376H9.58001C9.50001 9.46376 9.42001 9.40421 9.40001 9.32483L8.68001 6.72482L7.84001 9.30498C7.82001 9.38437 7.74001 9.42406 7.66001 9.42406H7.24001V12.2622C7.24001 12.3218 7.22001 12.3813 7.16001 12.421L6.82002 12.6592V14.1477C6.82002 14.247 6.74001 14.3263 6.64001 14.3263H6.04001C6.04001 14.3462 6.02001 14.3462 6.00001 14.3462V14.5645C6.00001 14.6638 5.92002 14.7431 5.82002 14.7431H5.58001V16.4699C5.58001 16.5691 5.50001 16.6485 5.40001 16.6485H3.20001C3.14001 16.6485 3.08001 16.6088 3.04001 16.5493L2.68002 15.9141L2.22001 16.5691C2.18001 16.6088 2.12002 16.6485 2.06002 16.6485H0.440015C0.240015 17.7599 0.140015 18.9309 0.140015 20.1019C0.140015 30.9783 9.04001 39.8103 20 39.8103C20.24 39.8103 20.5 39.8103 20.74 39.7905L32.82 16.6485H31.22Z" fill="#3D4FA2"/>
<path d="M47.8802 8.68097V1.17868C47.9602 1.15883 48.0403 1.15883 48.1203 1.13899C48.2003 1.13899 48.2603 1.11914 48.3203 1.11914C48.4203 1.11914 48.5203 1.11914 48.6203 1.13899C48.7203 1.15883 48.8202 1.19853 48.9002 1.25807C48.9802 1.31761 49.0602 1.397 49.1202 1.49624C49.1802 1.59548 49.2002 1.75426 49.2002 1.91303V8.66113H47.8802V8.68097ZM52.9402 8.78021C52.6802 8.78021 52.4602 8.72067 52.2802 8.60158C52.1002 8.4825 51.9602 8.34357 51.8602 8.16494L51.0402 6.75578C50.8202 6.37868 50.6002 6.06112 50.3602 5.80311C50.1402 5.54509 49.8602 5.36647 49.5602 5.28708V4.27486C49.7202 4.23517 49.8402 4.17563 49.9602 4.07639C50.0802 3.997 50.1802 3.89777 50.2802 3.77868C50.3802 3.6596 50.4802 3.52066 50.5802 3.36189C50.6802 3.20311 50.8002 3.02448 50.9402 2.84586L51.4602 2.11151C51.6402 1.83364 51.8202 1.61532 52.0402 1.4367C52.2602 1.25807 52.5002 1.15883 52.7802 1.15883C53.0002 1.15883 53.1802 1.21838 53.3402 1.31761C53.5002 1.41685 53.5602 1.59547 53.5602 1.83364C53.5602 1.93288 53.5602 1.99242 53.5402 2.01227C53.3002 2.01227 53.1002 2.07181 52.9402 2.21074C52.7802 2.34967 52.6402 2.50845 52.5202 2.68708L51.8802 3.6199C51.7402 3.85807 51.5802 4.07639 51.4002 4.27486C51.2202 4.47334 50.9802 4.63212 50.6802 4.71151C51.0002 4.81074 51.2802 4.96952 51.4802 5.18784C51.7002 5.40616 51.9002 5.68402 52.0802 6.00158L53.6602 8.62143C53.5002 8.70082 53.3602 8.76036 53.2002 8.78021C53.1402 8.78021 53.1002 8.80006 53.0602 8.80006C53.0202 8.78021 52.9802 8.78021 52.9402 8.78021Z" fill="#3D4FA2"/>
<path d="M61.0802 4.89025C61.0802 5.42613 61.0202 5.94216 60.8802 6.41849C60.7602 6.89483 60.5602 7.31162 60.2802 7.68872C60.0002 8.04597 59.6602 8.34368 59.2202 8.54215C58.8002 8.76048 58.2802 8.85971 57.6802 8.85971C57.0802 8.85971 56.5602 8.76048 56.1402 8.54215C55.7202 8.32383 55.3802 8.04597 55.1202 7.66887C54.8602 7.31162 54.6602 6.89483 54.5402 6.41849C54.4202 5.94216 54.3602 5.44597 54.3602 4.91009C54.3602 4.39406 54.4202 3.89788 54.5602 3.42154C54.7002 2.94521 54.9002 2.52842 55.1802 2.19101C55.4602 1.83376 55.8202 1.5559 56.2402 1.33757C56.6802 1.11925 57.1802 1.02002 57.7802 1.02002C58.3602 1.02002 58.8602 1.11926 59.2802 1.31773C59.7002 1.5162 60.0402 1.79406 60.3002 2.15132C60.5602 2.50857 60.7602 2.90551 60.8802 3.38185C61.0202 3.85819 61.0802 4.35437 61.0802 4.89025ZM59.7202 4.91009C59.7202 4.53299 59.6802 4.17574 59.6202 3.83834C59.5602 3.50093 59.4402 3.20322 59.3002 2.94521C59.1402 2.68719 58.9402 2.48872 58.7002 2.32994C58.4402 2.17116 58.1402 2.11162 57.7802 2.11162C57.4002 2.11162 57.0802 2.19101 56.8202 2.32994C56.5602 2.48872 56.3602 2.68719 56.2002 2.94521C56.0402 3.20322 55.9202 3.50093 55.8602 3.83834C55.8002 4.17574 55.7602 4.53299 55.7602 4.91009C55.7602 5.28719 55.8002 5.64444 55.8602 6.0017C55.9202 6.35895 56.0402 6.65666 56.2002 6.91467C56.3602 7.17269 56.5602 7.39101 56.8202 7.54979C57.0802 7.70857 57.3802 7.78796 57.7602 7.78796C58.1202 7.78796 58.4402 7.70857 58.7002 7.54979C58.9602 7.39101 59.1602 7.17269 59.3202 6.91467C59.4802 6.65666 59.5802 6.3391 59.6602 6.0017C59.6802 5.64444 59.7202 5.28719 59.7202 4.91009Z" fill="#3D4FA2"/>
<path d="M64.2602 4.27469H67.4002V1.17851C67.4802 1.15866 67.5602 1.15866 67.6402 1.13882C67.7202 1.13882 67.8002 1.11897 67.8402 1.11897C67.9402 1.11897 68.0202 1.11897 68.1402 1.13882C68.2402 1.15866 68.3402 1.19836 68.4202 1.2579C68.5002 1.31744 68.5802 1.39683 68.6202 1.49607C68.6802 1.5953 68.7002 1.73424 68.7002 1.91286V8.66096H67.4002V5.3266H64.2602V8.66096H62.9402V1.15866C63.0202 1.13882 63.1002 1.13882 63.1802 1.11897C63.2602 1.11897 63.3202 1.09912 63.3802 1.09912C63.4802 1.09912 63.5802 1.09912 63.6802 1.11897C63.7802 1.13882 63.8802 1.17851 63.9602 1.23805C64.0402 1.29759 64.1202 1.37698 64.1802 1.47622C64.2402 1.57546 64.2602 1.71439 64.2602 1.89301V4.27469V4.27469Z" fill="#3D4FA2"/>
<path d="M70.7603 1.15869H75.3002C75.3202 1.21823 75.3202 1.27778 75.3202 1.31747C75.3202 1.35717 75.3202 1.43655 75.3202 1.4961C75.3202 1.73426 75.2602 1.91289 75.1402 2.03197C75.0202 2.15106 74.8002 2.2106 74.4602 2.2106H72.0803V8.66098H70.7603V1.15869V1.15869Z" fill="#3D4FA2"/>
<path d="M81.7201 3.34187C81.7201 3.83805 81.6401 4.235 81.4801 4.5724C81.3201 4.90981 81.1001 5.16782 80.8201 5.3663C80.5401 5.56477 80.2201 5.7037 79.8601 5.80294C79.5001 5.88233 79.1001 5.94187 78.7001 5.94187H78.0601V8.70065H76.7201V1.19836C77.0401 1.15866 77.3601 1.13882 77.7001 1.11897C78.0401 1.09912 78.3401 1.09912 78.6401 1.09912C79.7201 1.09912 80.5201 1.27775 81.0001 1.65485C81.4801 2.03195 81.7201 2.58767 81.7201 3.34187ZM80.3601 3.40141C80.3601 3.16324 80.3201 2.94492 80.2401 2.78614C80.1601 2.62737 80.0401 2.48843 79.9001 2.36935C79.7601 2.27011 79.5801 2.19072 79.3801 2.13118C79.1801 2.09149 78.9601 2.07164 78.7401 2.07164C78.6201 2.07164 78.5001 2.07164 78.3801 2.09149C78.2601 2.09149 78.1401 2.11133 78.0201 2.13118V4.9495H78.4201C78.7401 4.9495 79.0201 4.92966 79.2601 4.87011C79.5001 4.83042 79.7001 4.73118 79.8601 4.63195C80.0201 4.51286 80.1401 4.35408 80.2401 4.17546C80.3201 3.95714 80.3601 3.69912 80.3601 3.40141Z" fill="#3D4FA2"/>
<path d="M84.6602 7.60907H87.2602C87.5802 7.60907 87.8002 7.68846 87.9202 7.82739C88.0402 7.96632 88.1002 8.14495 88.1002 8.34342C88.1002 8.40297 88.1002 8.46251 88.1002 8.5022C88.1002 8.5419 88.1002 8.60144 88.0802 8.68083H83.3402V1.15869H87.9002C87.9202 1.21823 87.9202 1.27778 87.9202 1.31747C87.9202 1.35717 87.9202 1.43655 87.9202 1.4961C87.9202 1.73426 87.8602 1.91289 87.7402 2.03197C87.6202 2.15106 87.4002 2.2106 87.0602 2.2106H84.6402V4.23503H87.1002V5.30678H84.6402V7.60907H84.6602Z" fill="#3D4FA2"/>
<path d="M94.5602 8.20458C94.5202 8.24428 94.4403 8.30382 94.3403 8.36336C94.2403 8.44275 94.0802 8.52214 93.9202 8.58168C93.7402 8.66107 93.5402 8.72061 93.3002 8.78015C93.0602 8.8397 92.7802 8.85954 92.4602 8.85954C91.8602 8.85954 91.3402 8.76031 90.9002 8.56183C90.4602 8.36336 90.1002 8.10534 89.8202 7.74809C89.5402 7.41069 89.3202 6.99389 89.2002 6.51756C89.0602 6.04122 89.0002 5.52519 89.0002 4.94962C89.0002 4.37405 89.0602 3.85802 89.2002 3.38168C89.3402 2.90534 89.5602 2.48855 89.8402 2.1313C90.1202 1.77405 90.4802 1.49618 90.9202 1.29771C91.3602 1.09924 91.8602 1 92.4602 1C92.7602 1 93.0202 1.03969 93.2602 1.09924C93.5002 1.15878 93.7202 1.23817 93.9002 1.31756C94.0802 1.4168 94.2402 1.49618 94.3602 1.59542C94.4802 1.69466 94.5602 1.77405 94.6202 1.83359C94.6602 1.87328 94.6803 1.91298 94.6803 1.97252C94.7003 2.03206 94.7003 2.07176 94.7003 2.11145C94.7003 2.25038 94.6602 2.38931 94.5602 2.52824C94.4602 2.66718 94.3603 2.78626 94.2403 2.8855C94.1403 2.78626 94.0403 2.70687 93.9403 2.60764C93.8403 2.5084 93.7002 2.42901 93.5602 2.34962C93.4202 2.27023 93.2603 2.21069 93.0803 2.17099C92.9003 2.1313 92.7003 2.0916 92.4803 2.0916C92.0803 2.0916 91.7402 2.17099 91.4602 2.32977C91.1802 2.48855 90.9602 2.70687 90.8002 2.96488C90.6402 3.2229 90.5202 3.52061 90.4402 3.87786C90.3602 4.21527 90.3402 4.55267 90.3402 4.90992C90.3402 5.26718 90.3802 5.62443 90.4402 5.96183C90.5202 6.29924 90.6402 6.59695 90.8002 6.87481C90.9802 7.13283 91.2003 7.35115 91.4803 7.50993C91.7603 7.6687 92.1202 7.74809 92.5403 7.74809C92.7803 7.74809 92.9802 7.7084 93.1602 7.64886C93.3402 7.58931 93.5003 7.52977 93.6403 7.45038C93.7803 7.37099 93.9002 7.2916 94.0002 7.21222C94.1002 7.13283 94.1803 7.05344 94.2403 6.99389C94.2803 7.03359 94.3402 7.09313 94.4002 7.15267C94.4602 7.21221 94.5002 7.29161 94.5602 7.37099C94.6002 7.45038 94.6403 7.50992 94.6803 7.58931C94.7203 7.6687 94.7202 7.72825 94.7202 7.76794C94.7202 7.84733 94.7002 7.92672 94.6602 7.98626C94.6802 8.0458 94.6202 8.12519 94.5602 8.20458Z" fill="#3D4FA2"/>
<path d="M101.5 8.20458C101.46 8.24428 101.38 8.30382 101.28 8.36336C101.18 8.44275 101.02 8.52214 100.86 8.58168C100.68 8.66107 100.48 8.72061 100.24 8.78015C100 8.8397 99.7202 8.85954 99.4002 8.85954C98.8002 8.85954 98.2802 8.76031 97.8402 8.56183C97.4002 8.36336 97.0402 8.10534 96.7602 7.74809C96.4802 7.41069 96.2602 6.99389 96.1402 6.51756C96.0002 6.04122 95.9402 5.52519 95.9402 4.94962C95.9402 4.37405 96.0002 3.85802 96.1402 3.38168C96.2802 2.90534 96.5002 2.48855 96.7802 2.1313C97.0602 1.77405 97.4202 1.49618 97.8602 1.29771C98.3002 1.09924 98.8002 1 99.4002 1C99.7002 1 99.9602 1.03969 100.2 1.09924C100.44 1.15878 100.66 1.23817 100.84 1.31756C101.02 1.4168 101.18 1.49618 101.3 1.59542C101.42 1.69466 101.5 1.77405 101.56 1.83359C101.6 1.87328 101.62 1.91298 101.62 1.97252C101.64 2.03206 101.64 2.07176 101.64 2.11145C101.64 2.25038 101.6 2.38931 101.5 2.52824C101.4 2.66718 101.3 2.78626 101.18 2.8855C101.08 2.78626 100.98 2.70687 100.88 2.60764C100.78 2.5084 100.64 2.42901 100.5 2.34962C100.36 2.27023 100.2 2.21069 100.02 2.17099C99.8402 2.1313 99.6402 2.0916 99.4202 2.0916C99.0202 2.0916 98.6802 2.17099 98.4002 2.32977C98.1202 2.48855 97.9002 2.70687 97.7402 2.96488C97.5802 3.2229 97.4602 3.52061 97.3802 3.87786C97.3002 4.21527 97.2802 4.55267 97.2802 4.90992C97.2802 5.26718 97.3202 5.62443 97.3802 5.96183C97.4602 6.29924 97.5802 6.59695 97.7402 6.87481C97.9202 7.13283 98.1402 7.35115 98.4202 7.50993C98.7002 7.6687 99.0602 7.74809 99.4802 7.74809C99.7202 7.74809 99.9202 7.7084 100.1 7.64886C100.28 7.58931 100.44 7.52977 100.58 7.45038C100.72 7.37099 100.84 7.2916 100.94 7.21222C101.04 7.13283 101.12 7.05344 101.18 6.99389C101.22 7.03359 101.28 7.09313 101.34 7.15267C101.4 7.21221 101.44 7.29161 101.5 7.37099C101.54 7.45038 101.58 7.50992 101.62 7.58931C101.66 7.6687 101.66 7.72825 101.66 7.76794C101.66 7.84733 101.64 7.92672 101.6 7.98626C101.62 8.0458 101.56 8.12519 101.5 8.20458Z" fill="#3D4FA2"/>
<path d="M48.9602 11.4595C49.1802 11.4595 49.3402 11.4992 49.4602 11.5984C49.5802 11.6976 49.6802 11.8366 49.7402 11.9953L51.6002 16.2228L53.4802 12.035C53.5802 11.8167 53.7002 11.6778 53.8402 11.5786C53.9802 11.4992 54.1402 11.4595 54.3202 11.4595C54.4602 11.4595 54.5802 11.4595 54.7202 11.4793C54.8402 11.4992 54.9402 11.519 55.0002 11.5389L55.5402 19.0015H54.2802L53.9002 13.6427L52.1602 17.374H51.0002L49.3402 13.8213L48.9802 19.0015H47.7202L48.2802 11.5389C48.3402 11.519 48.4402 11.4992 48.5602 11.4793C48.6802 11.4793 48.8202 11.4595 48.9602 11.4595Z" fill="#3D4FA2"/>
<path d="M63.7201 15.2306C63.7201 15.7665 63.6601 16.2825 63.5201 16.7588C63.4001 17.2352 63.2001 17.652 62.9201 18.029C62.6401 18.3863 62.3001 18.684 61.8601 18.8825C61.4401 19.1008 60.9201 19.2 60.3201 19.2C59.7201 19.2 59.2001 19.1008 58.7801 18.8825C58.3601 18.6642 58.0201 18.3863 57.7601 18.0092C57.5001 17.652 57.3001 17.2352 57.1801 16.7588C57.0601 16.2825 57.0001 15.7863 57.0001 15.2504C57.0001 14.7344 57.0601 14.2382 57.2001 13.7619C57.3401 13.2855 57.5401 12.8687 57.8201 12.5313C58.1001 12.1741 58.4601 11.8962 58.8801 11.6779C59.3201 11.4596 59.8201 11.3604 60.4201 11.3604C61.0001 11.3604 61.5001 11.4596 61.9201 11.6581C62.3401 11.8565 62.6801 12.1344 62.9401 12.4916C63.2001 12.8489 63.4001 13.2458 63.5201 13.7222C63.6601 14.1787 63.7201 14.6947 63.7201 15.2306ZM62.3601 15.2504C62.3601 14.8733 62.3201 14.5161 62.2601 14.1787C62.2001 13.8413 62.0801 13.5436 61.9401 13.2855C61.7801 13.0275 61.5801 12.8291 61.3401 12.6703C61.0801 12.5115 60.7801 12.452 60.4201 12.452C60.0401 12.452 59.7201 12.5313 59.4601 12.6703C59.2001 12.8291 59.0001 13.0275 58.8401 13.2855C58.6801 13.5436 58.5601 13.8413 58.5001 14.1787C58.4401 14.5161 58.4001 14.8733 58.4001 15.2504C58.4001 15.6275 58.4401 15.9848 58.5001 16.342C58.5601 16.6993 58.6801 16.997 58.8401 17.255C59.0001 17.513 59.2001 17.7313 59.4601 17.8901C59.7201 18.0489 60.0201 18.1283 60.4001 18.1283C60.7601 18.1283 61.0801 18.0489 61.3401 17.8901C61.6001 17.7313 61.8001 17.513 61.9601 17.255C62.1201 16.997 62.2201 16.6794 62.3001 16.342C62.3201 15.9848 62.3601 15.6275 62.3601 15.2504Z" fill="#3D4FA2"/>
<path d="M70.9403 18.5254C70.9003 18.5651 70.8203 18.6246 70.7203 18.6842C70.6203 18.7635 70.4603 18.8429 70.3003 18.9025C70.1203 18.9819 69.9203 19.0414 69.6803 19.101C69.4403 19.1605 69.1603 19.1803 68.8403 19.1803C68.2403 19.1803 67.7203 19.0811 67.2803 18.8826C66.8403 18.6842 66.4803 18.4261 66.2003 18.0689C65.9203 17.7315 65.7002 17.3147 65.5802 16.8384C65.4402 16.362 65.3802 15.846 65.3802 15.2704C65.3802 14.6948 65.4402 14.1788 65.5802 13.7025C65.7202 13.2261 65.9403 12.8094 66.2203 12.4521C66.5003 12.0948 66.8603 11.817 67.3003 11.6185C67.7403 11.42 68.2403 11.3208 68.8403 11.3208C69.1403 11.3208 69.4003 11.3605 69.6403 11.42C69.8803 11.4796 70.1003 11.559 70.2803 11.6384C70.4603 11.7376 70.6203 11.817 70.7403 11.9162C70.8603 12.0155 70.9403 12.0948 71.0003 12.1544C71.0403 12.1941 71.0603 12.2338 71.0603 12.2933C71.0803 12.3529 71.0803 12.3926 71.0803 12.4323C71.0803 12.5712 71.0403 12.7101 70.9403 12.849C70.8403 12.988 70.7403 13.1071 70.6203 13.2063C70.5203 13.1071 70.4203 13.0277 70.3203 12.9284C70.2203 12.8292 70.0803 12.7498 69.9403 12.6704C69.8003 12.591 69.6403 12.5315 69.4603 12.4918C69.2803 12.4521 69.0803 12.4124 68.8603 12.4124C68.4603 12.4124 68.1203 12.4918 67.8403 12.6506C67.5603 12.8094 67.3403 13.0277 67.1803 13.2857C67.0203 13.5437 66.9003 13.8414 66.8203 14.1987C66.7403 14.5361 66.7203 14.8735 66.7203 15.2307C66.7203 15.588 66.7603 15.9452 66.8203 16.2826C66.9003 16.62 67.0203 16.9177 67.1803 17.1956C67.3603 17.4536 67.5803 17.6719 67.8603 17.8307C68.1403 17.9895 68.5003 18.0689 68.9203 18.0689C69.1603 18.0689 69.3603 18.0292 69.5403 17.9697C69.7203 17.9101 69.8803 17.8506 70.0203 17.7712C70.1603 17.6918 70.2803 17.6124 70.3803 17.533C70.4803 17.4536 70.5603 17.3742 70.6203 17.3147C70.6603 17.3544 70.7203 17.4139 70.7803 17.4735C70.8403 17.533 70.8803 17.6124 70.9403 17.6918C70.9803 17.7712 71.0203 17.8307 71.0603 17.9101C71.1003 17.9895 71.1003 18.049 71.1003 18.0887C71.1003 18.1681 71.0803 18.2475 71.0403 18.3071C71.0603 18.3865 71.0203 18.4658 70.9403 18.5254Z" fill="#3D4FA2"/>
<path d="M72.8202 19.0213V11.519C72.9002 11.4992 72.9802 11.4992 73.0602 11.4793C73.1402 11.4793 73.2002 11.4595 73.2602 11.4595C73.3602 11.4595 73.4602 11.4595 73.5602 11.4793C73.6602 11.4992 73.7602 11.5389 73.8402 11.5984C73.9202 11.6579 74.0002 11.7373 74.0602 11.8366C74.1202 11.9358 74.1402 12.0946 74.1402 12.2534V19.0015H72.8202V19.0213ZM77.8802 19.1205C77.6202 19.1205 77.4002 19.061 77.2202 18.9419C77.0402 18.8228 76.9002 18.6839 76.8002 18.5053L75.9802 17.0961C75.7602 16.719 75.5402 16.4015 75.3002 16.1434C75.0602 15.8854 74.8002 15.7068 74.5002 15.6274V14.6152C74.6602 14.5755 74.7802 14.516 74.9002 14.4167C75.0202 14.3373 75.1202 14.2381 75.2202 14.119C75.3202 13.9999 75.4202 13.861 75.5202 13.7022C75.6202 13.5434 75.7402 13.3648 75.8802 13.1862L76.4002 12.4518C76.5802 12.174 76.7602 11.9557 76.9802 11.777C77.2002 11.5984 77.4402 11.4992 77.7202 11.4992C77.9402 11.4992 78.1202 11.5587 78.2802 11.6579C78.4402 11.7572 78.5002 11.9358 78.5002 12.174C78.5002 12.2732 78.5002 12.3328 78.4802 12.3526C78.2402 12.3526 78.0402 12.4121 77.8802 12.5511C77.7202 12.69 77.5802 12.8488 77.4602 13.0274L76.8202 13.9602C76.6802 14.1984 76.5202 14.4167 76.3402 14.6152C76.1602 14.8137 75.9202 14.9724 75.6202 15.0518C75.9402 15.1511 76.2202 15.3099 76.4202 15.5282C76.6402 15.7465 76.8402 16.0244 77.0202 16.3419L78.6002 18.9618C78.4402 19.0412 78.3002 19.1007 78.1402 19.1205C78.0802 19.1205 78.0402 19.1404 78.0002 19.1404C77.9802 19.1205 77.9202 19.1205 77.8802 19.1205Z" fill="#3D4FA2"/>
<path d="M86.0402 15.2306C86.0402 15.7665 85.9802 16.2825 85.8402 16.7588C85.7202 17.2352 85.5202 17.652 85.2402 18.029C84.9602 18.3863 84.6202 18.684 84.1802 18.8825C83.7602 19.1008 83.2402 19.2 82.6402 19.2C82.0402 19.2 81.5202 19.1008 81.1002 18.8825C80.6802 18.6642 80.3402 18.3863 80.0802 18.0092C79.8202 17.652 79.6202 17.2352 79.5002 16.7588C79.3802 16.2825 79.3202 15.7863 79.3202 15.2504C79.3202 14.7344 79.3802 14.2382 79.5202 13.7619C79.6602 13.2855 79.8602 12.8687 80.1402 12.5313C80.4202 12.1741 80.7802 11.8962 81.2002 11.6779C81.6402 11.4596 82.1402 11.3604 82.7402 11.3604C83.3202 11.3604 83.8202 11.4596 84.2402 11.6581C84.6602 11.8565 85.0002 12.1344 85.2602 12.4916C85.5202 12.8489 85.7202 13.2458 85.8402 13.7222C85.9802 14.1787 86.0402 14.6947 86.0402 15.2306ZM84.6602 15.2504C84.6602 14.8733 84.6202 14.5161 84.5602 14.1787C84.5002 13.8413 84.3802 13.5436 84.2402 13.2855C84.0802 13.0275 83.8802 12.8291 83.6402 12.6703C83.3802 12.5115 83.0802 12.452 82.7202 12.452C82.3402 12.452 82.0202 12.5313 81.7602 12.6703C81.5002 12.8291 81.3002 13.0275 81.1402 13.2855C80.9802 13.5436 80.8602 13.8413 80.8002 14.1787C80.7402 14.5161 80.7002 14.8733 80.7002 15.2504C80.7002 15.6275 80.7402 15.9848 80.8002 16.342C80.8602 16.6993 80.9802 16.997 81.1402 17.255C81.3002 17.513 81.5002 17.7313 81.7602 17.8901C82.0202 18.0489 82.3202 18.1283 82.7002 18.1283C83.0602 18.1283 83.3802 18.0489 83.6402 17.8901C83.9002 17.7313 84.1002 17.513 84.2602 17.255C84.4202 16.997 84.5202 16.6794 84.6002 16.342C84.6402 15.9848 84.6602 15.6275 84.6602 15.2504Z" fill="#3D4FA2"/>
<path d="M93.1602 16.8379C93.1602 17.2547 93.0802 17.612 92.9402 17.8898C92.8002 18.1677 92.5802 18.386 92.3202 18.5646C92.0402 18.7234 91.7202 18.8425 91.3402 18.9219C90.9602 18.9814 90.5402 19.0211 90.0602 19.0211H87.9202V11.5387C88.2802 11.499 88.6202 11.4791 88.9202 11.4593C89.2202 11.4395 89.5602 11.4395 89.9002 11.4395C90.4602 11.4395 90.9202 11.4791 91.2802 11.5585C91.6602 11.6379 91.9602 11.757 92.1802 11.9356C92.4002 12.0944 92.5602 12.2929 92.6602 12.5311C92.7602 12.7692 92.8002 13.0272 92.8002 13.3249C92.8002 13.583 92.7602 13.8013 92.7002 13.9998C92.6202 14.1982 92.5402 14.357 92.4202 14.4959C92.3002 14.6349 92.1802 14.754 92.0602 14.8333C91.9202 14.9326 91.8002 14.9921 91.6802 15.0318C91.8202 15.0715 91.9602 15.1311 92.1402 15.1906C92.3002 15.27 92.4602 15.3692 92.6202 15.5082C92.7802 15.6471 92.9002 15.8257 93.0002 16.0242C93.1002 16.2425 93.1602 16.5204 93.1602 16.8379ZM91.4602 13.3845C91.4602 13.186 91.4202 13.0272 91.3402 12.8883C91.2602 12.7692 91.1602 12.67 91.0202 12.5906C90.8802 12.5112 90.7202 12.4715 90.5202 12.4318C90.3202 12.3921 90.1202 12.3921 89.8802 12.3921C89.7202 12.3921 89.5802 12.3921 89.4802 12.412C89.3802 12.412 89.2802 12.4318 89.2202 12.4318V14.6746H90.1002C90.5002 14.6746 90.8402 14.5555 91.0802 14.3372C91.3402 14.1188 91.4602 13.8013 91.4602 13.3845ZM89.2402 18.0288H89.9002C90.2002 18.0288 90.4602 18.0089 90.7002 17.9891C90.9402 17.9494 91.1402 17.8898 91.3002 17.8104C91.4602 17.7112 91.6002 17.5921 91.6802 17.4333C91.7802 17.2746 91.8202 17.0562 91.8202 16.7982C91.8202 16.5799 91.7802 16.3814 91.7002 16.2227C91.6202 16.0639 91.5002 15.9448 91.3402 15.8654C91.2002 15.7662 91.0202 15.7066 90.8202 15.6669C90.6202 15.6272 90.4002 15.6074 90.1802 15.6074H89.2602V18.0288H89.2402Z" fill="#3D4FA2"/>
<path d="M100.24 18.5254C100.2 18.5651 100.12 18.6246 100.02 18.6842C99.9203 18.7635 99.7603 18.8429 99.6003 18.9025C99.4203 18.9819 99.2203 19.0414 98.9803 19.101C98.7403 19.1605 98.4603 19.1803 98.1403 19.1803C97.5403 19.1803 97.0203 19.0811 96.5803 18.8826C96.1403 18.6842 95.7803 18.4261 95.5003 18.0689C95.2203 17.7315 95.0003 17.3147 94.8803 16.8384C94.7403 16.362 94.6803 15.846 94.6803 15.2704C94.6803 14.6948 94.7403 14.1788 94.8803 13.7025C95.0203 13.2261 95.2403 12.8094 95.5203 12.4521C95.8003 12.0948 96.1603 11.817 96.6003 11.6185C97.0403 11.42 97.5403 11.3208 98.1403 11.3208C98.4403 11.3208 98.7003 11.3605 98.9403 11.42C99.1803 11.4796 99.4003 11.559 99.5803 11.6384C99.7603 11.7376 99.9203 11.817 100.04 11.9162C100.16 12.0155 100.24 12.0948 100.3 12.1544C100.34 12.1941 100.36 12.2338 100.36 12.2933C100.38 12.3529 100.38 12.3926 100.38 12.4323C100.38 12.5712 100.34 12.7101 100.24 12.849C100.14 12.988 100.04 13.1071 99.9203 13.2063C99.8203 13.1071 99.7203 13.0277 99.6203 12.9284C99.5203 12.8292 99.3803 12.7498 99.2403 12.6704C99.1003 12.591 98.9403 12.5315 98.7603 12.4918C98.5803 12.4521 98.3803 12.4124 98.1603 12.4124C97.7603 12.4124 97.4203 12.4918 97.1403 12.6506C96.8603 12.8094 96.6403 13.0277 96.4803 13.2857C96.3203 13.5437 96.2003 13.8414 96.1203 14.1987C96.0403 14.5361 96.0203 14.8735 96.0203 15.2307C96.0203 15.588 96.0603 15.9452 96.1203 16.2826C96.2003 16.62 96.3203 16.9177 96.4803 17.1956C96.6603 17.4536 96.8803 17.6719 97.1603 17.8307C97.4403 17.9895 97.8003 18.0689 98.2203 18.0689C98.4603 18.0689 98.6603 18.0292 98.8403 17.9697C99.0203 17.9101 99.1803 17.8506 99.3203 17.7712C99.4603 17.6918 99.5803 17.6124 99.6803 17.533C99.7803 17.4536 99.8603 17.3742 99.9203 17.3147C99.9603 17.3544 100.02 17.4139 100.08 17.4735C100.14 17.533 100.18 17.6124 100.24 17.6918C100.28 17.7712 100.32 17.8307 100.36 17.9101C100.4 17.9895 100.4 18.049 100.4 18.0887C100.4 18.1681 100.38 18.2475 100.34 18.3071C100.36 18.3865 100.3 18.4658 100.24 18.5254Z" fill="#3D4FA2"/>
<path d="M102.12 19.0213V11.519C102.2 11.4992 102.28 11.4992 102.36 11.4793C102.44 11.4793 102.5 11.4595 102.56 11.4595C102.66 11.4595 102.76 11.4595 102.86 11.4793C102.96 11.4992 103.06 11.5389 103.14 11.5984C103.22 11.6579 103.3 11.7373 103.36 11.8366C103.42 11.9358 103.44 12.0946 103.44 12.2534V19.0015H102.12V19.0213ZM107.16 19.1205C106.9 19.1205 106.68 19.061 106.5 18.9419C106.32 18.8228 106.18 18.6839 106.08 18.5053L105.26 17.0961C105.04 16.719 104.82 16.4015 104.58 16.1434C104.34 15.8854 104.08 15.7068 103.78 15.6274V14.6152C103.94 14.5755 104.06 14.516 104.18 14.4167C104.3 14.3373 104.4 14.2381 104.5 14.119C104.6 13.9999 104.7 13.861 104.8 13.7022C104.9 13.5434 105.02 13.3648 105.16 13.1862L105.68 12.4518C105.86 12.174 106.04 11.9557 106.26 11.777C106.48 11.5984 106.72 11.4992 107 11.4992C107.22 11.4992 107.4 11.5587 107.56 11.6579C107.72 11.7572 107.78 11.9358 107.78 12.174C107.78 12.2732 107.78 12.3328 107.76 12.3526C107.52 12.3526 107.32 12.4121 107.16 12.5511C107 12.69 106.86 12.8488 106.74 13.0274L106.1 13.9602C105.96 14.1984 105.8 14.4167 105.62 14.6152C105.44 14.8137 105.2 14.9724 104.9 15.0518C105.22 15.1511 105.5 15.3099 105.7 15.5282C105.92 15.7465 106.12 16.0244 106.3 16.3419L107.88 18.9618C107.72 19.0412 107.58 19.1007 107.42 19.1205C107.36 19.1205 107.32 19.1404 107.28 19.1404C107.26 19.1205 107.22 19.1205 107.16 19.1205Z" fill="#3D4FA2"/>
<path d="M109.34 11.499C109.42 11.4791 109.48 11.4791 109.54 11.4593C109.6 11.4593 109.66 11.4395 109.72 11.4395C109.82 11.4395 109.9 11.4395 110.02 11.4593C110.12 11.4791 110.22 11.5188 110.3 11.5784C110.38 11.6379 110.46 11.7173 110.52 11.8166C110.58 11.9158 110.6 12.0746 110.6 12.2333V16.957L113.82 11.8761C113.92 11.7173 114.04 11.5982 114.14 11.5387C114.24 11.4593 114.4 11.4395 114.6 11.4395C114.82 11.4395 115 11.4593 115.16 11.499V19.0013H113.92V13.6425L110.48 19.0013H109.36V11.499H109.34Z" fill="#3D4FA2"/>
<path d="M119.62 16.3421L118.04 19.0215H116.6L118.86 15.2703L116.82 11.678C116.94 11.6184 117.08 11.5787 117.22 11.539C117.36 11.4993 117.5 11.4795 117.64 11.4795C118 11.4795 118.28 11.6581 118.48 12.0154L119.68 14.2184L120.8 12.3329C120.9 12.1741 120.98 12.0352 121.08 11.9161C121.16 11.797 121.24 11.7177 121.32 11.6581C121.4 11.5986 121.48 11.5589 121.58 11.5192C121.68 11.4993 121.78 11.4795 121.9 11.4795C122.04 11.4795 122.16 11.4993 122.26 11.539C122.36 11.5787 122.48 11.6184 122.58 11.678L120.44 15.2306L122.7 19.0215C122.42 19.1207 122.18 19.1604 121.96 19.1604C121.7 19.1604 121.5 19.1207 121.36 19.0215C121.22 18.9222 121.08 18.7635 120.94 18.5451L119.62 16.3421Z" fill="#3D4FA2"/>
<path d="M50.3202 26.6624L48.7402 29.3418H47.3002L49.5602 25.5906L47.5202 21.9983C47.6402 21.9387 47.7802 21.899 47.9202 21.8594C48.0602 21.8197 48.2002 21.7998 48.3402 21.7998C48.7002 21.7998 48.9802 21.9784 49.1802 22.3357L50.3802 24.5387L51.5002 22.6532C51.6002 22.4945 51.6802 22.3555 51.7802 22.2364C51.8602 22.1174 51.9402 22.038 52.0202 21.9784C52.1002 21.9189 52.1802 21.8792 52.2802 21.8395C52.3802 21.8197 52.4802 21.7998 52.6002 21.7998C52.7402 21.7998 52.8602 21.8197 52.9602 21.8594C53.0602 21.899 53.1802 21.9387 53.2802 21.9983L51.1402 25.551L53.4002 29.3418C53.1202 29.441 52.8802 29.4807 52.6602 29.4807C52.4002 29.4807 52.2002 29.441 52.0602 29.3418C51.9202 29.2425 51.7802 29.0838 51.6402 28.8655L50.3202 26.6624Z" fill="#3D4FA2"/>
<path d="M54.8401 21.8398C54.9201 21.82 54.9801 21.82 55.0401 21.8001C55.1001 21.8001 55.1601 21.7803 55.2201 21.7803C55.3201 21.7803 55.4001 21.7803 55.5201 21.8001C55.6201 21.82 55.7201 21.8597 55.8001 21.9192C55.8801 21.9787 55.9601 22.0581 56.0201 22.1574C56.0801 22.2566 56.1001 22.4154 56.1001 22.5742V27.2978L59.3201 22.2169C59.4201 22.0581 59.5401 21.9391 59.6401 21.8795C59.7401 21.8001 59.9001 21.7803 60.1001 21.7803C60.3201 21.7803 60.5001 21.8001 60.6601 21.8398V29.3421H59.4001V23.9833L55.9601 29.3421H54.8401V21.8398Z" fill="#3D4FA2"/>
<path d="M67.7401 24.0032C67.7401 24.4994 67.6601 24.8963 67.5001 25.2337C67.3401 25.5711 67.1201 25.8291 66.8401 26.0276C66.5601 26.2261 66.2401 26.365 65.8801 26.4642C65.5201 26.5436 65.1201 26.6032 64.7201 26.6032H64.0801V29.362H62.7401V21.8795C63.0601 21.8398 63.3801 21.82 63.7201 21.8001C64.0601 21.7803 64.3601 21.7803 64.6601 21.7803C65.7401 21.7803 66.5401 21.9589 67.0201 22.336C67.5001 22.6932 67.7401 23.2688 67.7401 24.0032ZM66.3801 24.0826C66.3801 23.8444 66.3401 23.6261 66.2601 23.4673C66.1801 23.3085 66.0601 23.1696 65.9201 23.0505C65.7801 22.9513 65.6001 22.8719 65.4001 22.8123C65.2001 22.7726 64.9801 22.7528 64.7601 22.7528C64.6401 22.7528 64.5201 22.7528 64.4001 22.7726C64.2801 22.7726 64.1601 22.7925 64.0401 22.8123V25.6108H64.4401C64.7601 25.6108 65.0401 25.591 65.2801 25.5314C65.5201 25.4917 65.7201 25.3925 65.8801 25.2932C66.0401 25.1742 66.1601 25.0154 66.2601 24.8368C66.3401 24.6184 66.3801 24.3803 66.3801 24.0826Z" fill="#3D4FA2"/>
<path d="M70.0202 29.5403C69.7002 29.5403 69.4202 29.5006 69.1802 29.4013C68.9402 29.3021 68.8202 29.1632 68.8202 28.9448C68.8202 28.8456 68.8402 28.7265 68.9002 28.5876C68.9602 28.4487 69.0202 28.3097 69.1002 28.1906C69.1802 28.2502 69.2802 28.3097 69.4202 28.3693C69.5402 28.4288 69.7002 28.4487 69.8602 28.4487C70.1202 28.4487 70.3202 28.3693 70.4802 28.1906C70.6202 28.012 70.7802 27.754 70.9202 27.4166L71.1602 26.841L68.6002 21.9983C68.7202 21.9387 68.8602 21.899 68.9802 21.8594C69.1002 21.8197 69.2402 21.7998 69.4002 21.7998C69.7602 21.7998 70.0402 21.9784 70.2202 22.3357L71.8202 25.551L73.0602 22.4548C73.1602 22.2166 73.2802 22.0578 73.4202 21.9586C73.5602 21.8594 73.7402 21.8197 73.9602 21.8197C74.1002 21.8197 74.2202 21.8395 74.3202 21.8792C74.4202 21.9189 74.5402 21.9586 74.6602 22.0181L72.1002 27.7937C72.0002 28.0319 71.8802 28.2502 71.7602 28.4685C71.6402 28.6868 71.5002 28.8654 71.3402 29.0441C71.1802 29.2029 71.0002 29.3418 70.7802 29.441C70.5802 29.5006 70.3202 29.5403 70.0202 29.5403Z" fill="#3D4FA2"/>
<path d="M81.0201 24.0032C81.0201 24.4994 80.9401 24.8963 80.7801 25.2337C80.6201 25.5711 80.4001 25.8291 80.1201 26.0276C79.8401 26.2261 79.5201 26.365 79.1601 26.4642C78.8001 26.5436 78.4001 26.6032 78.0001 26.6032H77.3601V29.362H76.0001V21.8795C76.3201 21.8398 76.6401 21.82 76.9801 21.8001C77.3201 21.7803 77.6201 21.7803 77.9201 21.7803C79.0001 21.7803 79.8001 21.9589 80.2801 22.336C80.7801 22.6932 81.0201 23.2688 81.0201 24.0032ZM79.6601 24.0826C79.6601 23.8444 79.6201 23.6261 79.5401 23.4673C79.4601 23.3085 79.3401 23.1696 79.2001 23.0505C79.0601 22.9513 78.8801 22.8719 78.6801 22.8123C78.4801 22.7726 78.2601 22.7528 78.0401 22.7528C77.9201 22.7528 77.8001 22.7528 77.6801 22.7726C77.5601 22.7726 77.4401 22.7925 77.3201 22.8123V25.6108H77.7201C78.0401 25.6108 78.3201 25.591 78.5601 25.5314C78.8001 25.4917 79.0001 25.3925 79.1601 25.2932C79.3201 25.1742 79.4401 25.0154 79.5401 24.8368C79.6201 24.6184 79.6601 24.3803 79.6601 24.0826Z" fill="#3D4FA2"/>
<path d="M82.6002 21.8398H87.1402C87.1602 21.8994 87.1602 21.9589 87.1602 21.9986C87.1602 22.0383 87.1602 22.1177 87.1602 22.1773C87.1602 22.4154 87.1002 22.594 86.9802 22.7131C86.8602 22.8322 86.6402 22.8917 86.3002 22.8917H83.9202V29.3421H82.6002V21.8398Z" fill="#3D4FA2"/>
<path d="M94.3401 25.5709C94.3401 26.1068 94.2801 26.6228 94.1401 27.0992C94.0201 27.5755 93.8201 27.9923 93.5401 28.3694C93.2601 28.7266 92.9201 29.0244 92.4801 29.2228C92.0601 29.4412 91.5401 29.5404 90.9401 29.5404C90.3401 29.5404 89.8201 29.4412 89.4001 29.2228C88.9801 29.0045 88.6401 28.7266 88.3801 28.3495C88.1201 27.9923 87.9201 27.5755 87.8001 27.0992C87.6801 26.6228 87.6201 26.1266 87.6201 25.5908C87.6201 25.0747 87.6801 24.5785 87.8201 24.1022C87.9601 23.6259 88.1601 23.2091 88.4401 22.8717C88.7201 22.5144 89.0801 22.2366 89.5001 22.0182C89.9401 21.7999 90.4401 21.7007 91.0401 21.7007C91.6201 21.7007 92.1201 21.7999 92.5401 21.9984C92.9601 22.1969 93.3001 22.4747 93.5601 22.832C93.8201 23.1892 94.0201 23.5862 94.1401 24.0625C94.2801 24.519 94.3401 25.035 94.3401 25.5709ZM92.9601 25.5908C92.9601 25.2137 92.9201 24.8564 92.8601 24.519C92.8001 24.1816 92.6801 23.8839 92.5401 23.6259C92.3801 23.3679 92.1801 23.1694 91.9401 23.0106C91.6801 22.8518 91.3801 22.7923 91.0201 22.7923C90.6401 22.7923 90.3201 22.8717 90.0601 23.0106C89.8001 23.1694 89.6001 23.3679 89.4401 23.6259C89.2801 23.8839 89.1601 24.1816 89.1001 24.519C89.0401 24.8564 89.0001 25.2137 89.0001 25.5908C89.0001 25.9679 89.0401 26.3251 89.1001 26.6824C89.1601 27.0396 89.2801 27.3373 89.4401 27.5953C89.6001 27.8534 89.8001 28.0717 90.0601 28.2305C90.3201 28.3892 90.6201 28.4686 91.0001 28.4686C91.3601 28.4686 91.6801 28.3892 91.9401 28.2305C92.2001 28.0717 92.4001 27.8534 92.5601 27.5953C92.7201 27.3373 92.8201 27.0198 92.9001 26.6824C92.9401 26.3251 92.9601 25.9679 92.9601 25.5908Z" fill="#3D4FA2"/>
<path d="M101.46 27.1787C101.46 27.5955 101.38 27.9528 101.24 28.2307C101.1 28.5085 100.88 28.7268 100.62 28.9055C100.34 29.0642 100.02 29.1833 99.6401 29.2627C99.2601 29.3223 98.8401 29.362 98.3601 29.362H96.2201V21.8795C96.5801 21.8398 96.9201 21.82 97.2201 21.8001C97.5201 21.7803 97.8601 21.7803 98.2001 21.7803C98.7601 21.7803 99.2201 21.82 99.5801 21.8994C99.9601 21.9787 100.26 22.0978 100.48 22.2765C100.7 22.4352 100.86 22.6337 100.96 22.8719C101.06 23.11 101.1 23.3681 101.1 23.6658C101.1 23.9238 101.06 24.1421 101 24.3406C100.92 24.5391 100.84 24.6978 100.72 24.8368C100.6 24.9757 100.48 25.0948 100.36 25.1742C100.22 25.2734 100.1 25.3329 99.9801 25.3726C100.12 25.4123 100.26 25.4719 100.44 25.5314C100.6 25.6108 100.76 25.71 100.92 25.849C101.08 25.9879 101.2 26.1665 101.3 26.365C101.4 26.5833 101.46 26.8612 101.46 27.1787ZM99.7601 23.7253C99.7601 23.5268 99.7201 23.3681 99.6401 23.2291C99.5601 23.11 99.4601 23.0108 99.3201 22.9314C99.1801 22.852 99.0201 22.8123 98.8201 22.7726C98.6201 22.7329 98.4201 22.7329 98.1801 22.7329C98.0201 22.7329 97.8801 22.7329 97.7801 22.7528C97.6801 22.7528 97.5801 22.7726 97.5201 22.7726V25.0154H98.4001C98.8001 25.0154 99.1401 24.8963 99.3801 24.678C99.6401 24.4398 99.7601 24.1421 99.7601 23.7253ZM97.5401 28.3696H98.2001C98.5001 28.3696 98.7601 28.3497 99.0001 28.3299C99.2401 28.2902 99.4401 28.2307 99.6001 28.1513C99.7601 28.052 99.9001 27.9329 99.9801 27.7742C100.08 27.6154 100.12 27.3971 100.12 27.1391C100.12 26.9207 100.08 26.7223 100 26.5635C99.9201 26.4047 99.8001 26.2856 99.6401 26.2062C99.5001 26.107 99.3201 26.0474 99.1201 26.0078C98.9201 25.9681 98.7001 25.9482 98.4801 25.9482H97.5601V28.3696H97.5401Z" fill="#3D4FA2"/>
<path d="M47.3002 34.0853C47.3202 34.0853 47.3602 34.0654 47.3802 34.0654C47.4002 34.0654 47.4202 34.0654 47.4402 34.0654C47.4802 34.0654 47.5202 34.0654 47.5602 34.0853C47.6002 34.0853 47.6402 34.1051 47.6802 34.125C47.7202 34.1448 47.7402 34.1845 47.7602 34.2242C47.7802 34.2639 47.8002 34.3234 47.8002 34.383V36.1891L49.0402 34.2441C49.0802 34.1845 49.1202 34.1448 49.1602 34.1051C49.2002 34.0853 49.2602 34.0654 49.3402 34.0654C49.4202 34.0654 49.5002 34.0654 49.5602 34.0853V36.9631H49.0802V34.9189L47.7602 36.9631H47.3402V34.0853H47.3002Z" fill="black"/>
<path d="M50.7201 35.2761H51.9201V34.0853C51.9601 34.0853 51.9801 34.0654 52.0201 34.0654C52.0601 34.0654 52.0801 34.0654 52.1001 34.0654C52.1401 34.0654 52.1801 34.0654 52.2201 34.0853C52.2601 34.0853 52.3001 34.1051 52.3201 34.125C52.3601 34.1448 52.3801 34.1845 52.4001 34.2242C52.4201 34.2639 52.4401 34.3234 52.4401 34.383V36.9631H51.9401V35.6731H50.7401V36.9631H50.2401V34.0853C50.2801 34.0853 50.3001 34.0654 50.3401 34.0654C50.3801 34.0654 50.4001 34.0654 50.4201 34.0654C50.4601 34.0654 50.5001 34.0654 50.5401 34.0853C50.5801 34.0853 50.6201 34.1051 50.6401 34.125C50.6801 34.1448 50.7001 34.1845 50.7201 34.2242C50.7401 34.2639 50.7601 34.3234 50.7601 34.383V35.2761H50.7201Z" fill="black"/>
<path d="M53.6402 35.2761H54.8402V34.0853C54.8802 34.0853 54.9002 34.0654 54.9402 34.0654C54.9802 34.0654 55.0002 34.0654 55.0202 34.0654C55.0602 34.0654 55.1002 34.0654 55.1402 34.0853C55.1802 34.0853 55.2202 34.1051 55.2402 34.125C55.2802 34.1448 55.3002 34.1845 55.3202 34.2242C55.3402 34.2639 55.3602 34.3234 55.3602 34.383V36.9631H54.8602V35.6731H53.6602V36.9631H53.1602V34.0853C53.2002 34.0853 53.2202 34.0654 53.2602 34.0654C53.3002 34.0654 53.3202 34.0654 53.3402 34.0654C53.3802 34.0654 53.4202 34.0654 53.4602 34.0853C53.5002 34.0853 53.5402 34.1051 53.5602 34.125C53.6002 34.1448 53.6202 34.1845 53.6402 34.2242C53.6602 34.2639 53.6802 34.3234 53.6802 34.383V35.2761H53.6402Z" fill="black"/>
<path d="M58.5602 35.5146C58.5602 35.7131 58.5402 35.9115 58.4802 36.11C58.4402 36.2886 58.3602 36.4474 58.2402 36.5864C58.1402 36.7253 58.0002 36.8444 57.8402 36.9238C57.6802 37.0032 57.4802 37.0429 57.2402 37.0429C57.0002 37.0429 56.8202 37.0032 56.6402 36.9238C56.4802 36.8444 56.3402 36.7253 56.2402 36.5864C56.1402 36.4474 56.0602 36.2886 56.0202 36.11C55.9802 35.9314 55.9602 35.7329 55.9602 35.5345C55.9602 35.336 55.9802 35.1375 56.0402 34.9589C56.1002 34.7803 56.1802 34.6215 56.2802 34.4825C56.3802 34.3436 56.5202 34.2444 56.7002 34.165C56.8602 34.0856 57.0602 34.0459 57.2802 34.0459C57.5002 34.0459 57.7002 34.0856 57.8602 34.165C58.0202 34.2444 58.1602 34.3436 58.2602 34.4825C58.3602 34.6215 58.4402 34.7803 58.4802 34.9589C58.5402 35.1177 58.5602 35.3161 58.5602 35.5146ZM58.0402 35.5146C58.0402 35.3757 58.0202 35.2367 58.0002 35.0978C57.9802 34.9589 57.9402 34.8596 57.8802 34.7604C57.8202 34.6612 57.7402 34.5818 57.6402 34.5222C57.5402 34.4627 57.4202 34.4428 57.2802 34.4428C57.1402 34.4428 57.0202 34.4627 56.9202 34.5222C56.8202 34.5818 56.7402 34.6612 56.6802 34.7604C56.6202 34.8596 56.5802 34.9787 56.5402 35.0978C56.5202 35.2367 56.5002 35.3558 56.5002 35.5146C56.5002 35.6535 56.5202 35.7925 56.5402 35.9314C56.5602 36.0703 56.6002 36.1894 56.6602 36.2886C56.7202 36.3879 56.8002 36.4673 56.9002 36.5268C57.0002 36.5864 57.1202 36.6261 57.2602 36.6261C57.4002 36.6261 57.5202 36.5864 57.6202 36.5268C57.7202 36.4673 57.8002 36.3879 57.8602 36.2886C57.9202 36.1894 57.9602 36.0703 57.9802 35.9314C58.0202 35.8123 58.0402 35.6734 58.0402 35.5146Z" fill="black"/>
<path d="M61.2002 36.1299C61.2002 36.2887 61.1802 36.4276 61.1202 36.5268C61.0602 36.6261 60.9802 36.7253 60.8802 36.7848C60.7802 36.8444 60.6602 36.8841 60.5002 36.9238C60.3602 36.9436 60.2002 36.9635 60.0202 36.9635H59.2002V34.1054C59.3402 34.0856 59.4602 34.0856 59.5802 34.0657C59.7002 34.0657 59.8202 34.0459 59.9602 34.0459C60.1802 34.0459 60.3402 34.0657 60.5002 34.0856C60.6402 34.1253 60.7602 34.165 60.8402 34.2245C60.9202 34.2841 60.9802 34.3635 61.0202 34.4627C61.0602 34.5619 61.0802 34.6612 61.0802 34.7803C61.0802 34.8795 61.0602 34.9589 61.0402 35.0383C61.0202 35.1177 60.9802 35.1772 60.9402 35.2367C60.9002 35.2963 60.8402 35.336 60.8002 35.3757C60.7402 35.4154 60.7002 35.4352 60.6602 35.4551C60.7202 35.4749 60.7802 35.4948 60.8402 35.5146C60.9002 35.5344 60.9602 35.5741 61.0202 35.6337C61.0802 35.6932 61.1202 35.7528 61.1602 35.8322C61.1802 35.9116 61.2002 36.0108 61.2002 36.1299ZM60.5602 34.8199C60.5602 34.7406 60.5402 34.681 60.5202 34.6215C60.5002 34.5818 60.4602 34.5421 60.4002 34.5024C60.3402 34.4825 60.2802 34.4627 60.2202 34.4428C60.1402 34.423 60.0602 34.423 59.9802 34.423C59.9202 34.423 59.8602 34.423 59.8202 34.423C59.7802 34.423 59.7402 34.423 59.7202 34.423V35.2764H60.0602C60.2202 35.2764 60.3402 35.2367 60.4402 35.1375C60.5002 35.078 60.5602 34.9589 60.5602 34.8199ZM59.7002 36.5864H59.9602C60.0802 36.5864 60.1802 36.5864 60.2602 36.5665C60.3402 36.5467 60.4202 36.5268 60.5002 36.507C60.5602 36.4673 60.6202 36.4276 60.6402 36.368C60.6802 36.3085 60.7002 36.2291 60.7002 36.1299C60.7002 36.0505 60.6802 35.9711 60.6602 35.9115C60.6202 35.852 60.5802 35.8123 60.5202 35.7726C60.4602 35.7329 60.4002 35.7131 60.3202 35.6932C60.2402 35.6734 60.1602 35.6734 60.0802 35.6734H59.7202V36.5864H59.7002Z" fill="black"/>
<path d="M64.1401 36.9631H63.6201L63.3601 36.2288H62.2801L62.0201 36.9631H61.5201L62.5401 34.125C62.5801 34.1051 62.6201 34.1051 62.6601 34.0853C62.7201 34.0654 62.7601 34.0654 62.8201 34.0654C62.8401 34.0654 62.8801 34.0654 62.9201 34.0654C62.9601 34.0654 62.9801 34.0853 63.0201 34.1051C63.0601 34.125 63.0801 34.1448 63.1001 34.1647C63.1201 34.2044 63.1401 34.2441 63.1601 34.2838L64.1401 36.9631ZM63.2401 35.8517L62.8201 34.5616L62.4001 35.8517H63.2401Z" fill="black"/>
<path d="M64.6001 34.0853C64.6401 34.0853 64.6601 34.0654 64.7001 34.0654C64.7401 34.0654 64.7601 34.0654 64.7801 34.0654C64.8201 34.0654 64.8601 34.0654 64.9001 34.0853C64.9401 34.0853 64.9801 34.1051 65.0201 34.125C65.0601 34.1448 65.0801 34.1845 65.1001 34.2242C65.1201 34.2639 65.1401 34.3234 65.1401 34.383V36.5662H66.3001V34.0853C66.3401 34.0853 66.3601 34.0654 66.4001 34.0654C66.4401 34.0654 66.4601 34.0654 66.4801 34.0654C66.5201 34.0654 66.5601 34.0654 66.6001 34.0853C66.6401 34.0853 66.6801 34.1051 66.7201 34.125C66.7601 34.1448 66.7801 34.1845 66.8001 34.2242C66.8201 34.2639 66.8401 34.3234 66.8401 34.383V36.5662H67.1401V37.6578H66.6601V36.983H64.6601V34.0853H64.6001Z" fill="black"/>
<path d="M67.54 34.0853C67.56 34.0853 67.6 34.0654 67.62 34.0654C67.64 34.0654 67.66 34.0654 67.68 34.0654C67.72 34.0654 67.76 34.0654 67.8 34.0853C67.84 34.0853 67.88 34.1051 67.92 34.125C67.96 34.1448 67.98 34.1845 68 34.2242C68.02 34.2639 68.04 34.3234 68.04 34.383V36.1891L69.28 34.2441C69.32 34.1845 69.36 34.1448 69.4 34.1051C69.44 34.0853 69.5 34.0654 69.58 34.0654C69.66 34.0654 69.74 34.0654 69.8 34.0853V36.9631H69.32V34.9189L68 36.9631H67.58V34.0853H67.54Z" fill="black"/>
<path d="M70.4802 34.0853C70.5002 34.0853 70.5402 34.0654 70.5602 34.0654C70.5802 34.0654 70.6002 34.0654 70.6202 34.0654C70.6602 34.0654 70.7002 34.0654 70.7402 34.0853C70.7802 34.0853 70.8202 34.1051 70.8602 34.125C70.9002 34.1448 70.9202 34.1845 70.9402 34.2242C70.9602 34.2639 70.9802 34.3234 70.9802 34.383V36.1891L72.2202 34.2441C72.2602 34.1845 72.3002 34.1448 72.3402 34.1051C72.3802 34.0853 72.4402 34.0654 72.5202 34.0654C72.6002 34.0654 72.6802 34.0654 72.7402 34.0853V36.9631H72.2602V34.9189L70.9402 36.9631H70.5202V34.0853H70.4802Z" fill="black"/>
<path d="M75.4602 34.0853C75.4802 34.0853 75.5202 34.0654 75.5402 34.0654C75.5602 34.0654 75.5802 34.0654 75.6002 34.0654C75.6402 34.0654 75.6802 34.0654 75.7202 34.0853C75.7602 34.0853 75.8002 34.1051 75.8402 34.125C75.8802 34.1448 75.9002 34.1845 75.9202 34.2242C75.9402 34.2639 75.9602 34.3234 75.9602 34.383V36.1891L77.2002 34.2441C77.2402 34.1845 77.2802 34.1448 77.3202 34.1051C77.3602 34.0853 77.4202 34.0654 77.5002 34.0654C77.5802 34.0654 77.6602 34.0654 77.7202 34.0853V36.9631H77.2402V34.9189L75.9202 36.9631H75.5002V34.0853H75.4602Z" fill="black"/>
<path d="M80.4602 36.9633V34.0854H82.6602V36.9633H82.1602V34.5022H80.9602V36.9633H80.4602Z" fill="black"/>
<path d="M85.3002 34.919C85.3002 35.0976 85.2602 35.2564 85.2002 35.3953C85.1402 35.5144 85.0602 35.6335 84.9402 35.6931C84.8402 35.7724 84.7002 35.832 84.5602 35.8518C84.4202 35.8915 84.2802 35.8915 84.1202 35.8915H83.8802V36.9434H83.3602V34.0854C83.4802 34.0656 83.6002 34.0656 83.7402 34.0457C83.8602 34.0457 83.9802 34.0259 84.1002 34.0259C84.5202 34.0259 84.8202 34.1053 85.0002 34.2442C85.2002 34.4228 85.3002 34.6411 85.3002 34.919ZM84.7802 34.9389C84.7802 34.8396 84.7602 34.7602 84.7402 34.7007C84.7002 34.6411 84.6602 34.5816 84.6202 34.5419C84.5602 34.5022 84.5002 34.4625 84.4202 34.4625C84.3402 34.4427 84.2602 34.4427 84.1802 34.4427C84.1402 34.4427 84.0802 34.4427 84.0402 34.4427C84.0002 34.4427 83.9602 34.4427 83.9002 34.4625V35.5343H84.0602C84.1802 35.5343 84.2802 35.5343 84.3802 35.5144C84.4802 35.4946 84.5402 35.4549 84.6202 35.4152C84.6802 35.3755 84.7202 35.316 84.7602 35.2366C84.7602 35.1572 84.7802 35.0579 84.7802 34.9389Z" fill="black"/>
<path d="M87.8401 36.9631H87.3201L87.0601 36.2288H85.9801L85.7201 36.9631H85.2201L86.2401 34.125C86.2801 34.1051 86.3201 34.1051 86.3601 34.0853C86.4201 34.0654 86.4601 34.0654 86.5201 34.0654C86.5401 34.0654 86.5801 34.0654 86.6201 34.0654C86.6601 34.0654 86.6801 34.0853 86.7201 34.1051C86.7601 34.125 86.7801 34.1448 86.8001 34.1647C86.8201 34.2044 86.8401 34.2441 86.8601 34.2838L87.8401 36.9631ZM86.9401 35.8517L86.5201 34.5616L86.1001 35.8517H86.9401Z" fill="black"/>
<path d="M88.2802 36.9631V34.0853C88.3202 34.0853 88.3402 34.0654 88.3802 34.0654C88.4202 34.0654 88.4401 34.0654 88.4601 34.0654C88.5001 34.0654 88.5402 34.0654 88.5801 34.0853C88.6201 34.0853 88.6601 34.1051 88.6801 34.125C88.7201 34.1448 88.7401 34.1845 88.7601 34.2242C88.7801 34.2639 88.8001 34.3234 88.8001 34.383V36.9631H88.2802ZM90.2201 37.0028C90.1201 37.0028 90.0401 36.983 89.9601 36.9433C89.9001 36.9036 89.8401 36.8441 89.8001 36.7845L89.4801 36.2486C89.4001 36.1097 89.3001 35.9708 89.2201 35.8715C89.1401 35.7723 89.0201 35.7128 88.9201 35.6731V35.2761C88.9801 35.2563 89.0201 35.2364 89.0801 35.1967C89.1201 35.157 89.1601 35.1173 89.2001 35.0776C89.2401 35.0379 89.2801 34.9784 89.3201 34.9189C89.3601 34.8593 89.4001 34.7998 89.4601 34.7204L89.6601 34.4425C89.7201 34.3433 89.8001 34.2441 89.8801 34.1845C89.9601 34.1051 90.0601 34.0853 90.1601 34.0853C90.2401 34.0853 90.3201 34.1051 90.3801 34.1448C90.4401 34.1845 90.4601 34.2441 90.4601 34.3433C90.4601 34.383 90.4601 34.4028 90.4601 34.4028C90.3801 34.4028 90.3001 34.4227 90.2401 34.4822C90.1801 34.5418 90.1201 34.6013 90.0801 34.6608L89.8401 35.0181C89.7801 35.0975 89.7201 35.1967 89.6601 35.2761C89.6001 35.3555 89.5001 35.415 89.3801 35.4349C89.5001 35.4746 89.6001 35.5341 89.7001 35.6135C89.7801 35.6929 89.8601 35.812 89.9401 35.9311L90.5401 36.9433C90.4801 36.983 90.4201 37.0028 90.3601 37.0028C90.3401 37.0028 90.3201 37.0028 90.3001 37.0028C90.2601 37.0028 90.2401 37.0028 90.2201 37.0028Z" fill="black"/>
<path d="M91.6202 36.9633V34.5022H90.7002C90.7002 34.4625 90.7002 34.4427 90.6802 34.4229C90.6802 34.403 90.6802 34.3832 90.6802 34.3435C90.6802 34.2839 90.7002 34.2045 90.7602 34.1648C90.8202 34.1053 90.9002 34.0854 91.0002 34.0854H93.0201C93.0201 34.1053 93.0201 34.145 93.0201 34.1648C93.0201 34.1847 93.0201 34.2244 93.0201 34.2442C93.0201 34.3236 93.0001 34.3832 92.9401 34.4427C92.9002 34.5022 92.8201 34.5221 92.7001 34.5221H92.1002V36.9832H91.6202V36.9633Z" fill="black"/>
<path d="M93.4802 34.0853C93.5002 34.0853 93.5402 34.0654 93.5602 34.0654C93.5802 34.0654 93.6002 34.0654 93.6202 34.0654C93.6602 34.0654 93.7002 34.0654 93.7402 34.0853C93.7802 34.0853 93.8202 34.1051 93.8602 34.125C93.9002 34.1448 93.9202 34.1845 93.9402 34.2242C93.9602 34.2639 93.9802 34.3234 93.9802 34.383V36.1891L95.2202 34.2441C95.2602 34.1845 95.3002 34.1448 95.3402 34.1051C95.3802 34.0853 95.4402 34.0654 95.5202 34.0654C95.6002 34.0654 95.6802 34.0654 95.7402 34.0853V36.9631H95.2602V34.9189L93.9402 36.9631H93.5202V34.0853H93.4802Z" fill="black"/>
<path d="M96.4003 36.9631V34.0853C96.4403 34.0853 96.4603 34.0654 96.5003 34.0654C96.5403 34.0654 96.5603 34.0654 96.5803 34.0654C96.6203 34.0654 96.6603 34.0654 96.7003 34.0853C96.7403 34.0853 96.7803 34.1051 96.8003 34.125C96.8403 34.1448 96.8603 34.1845 96.8803 34.2242C96.9003 34.2639 96.9203 34.3234 96.9203 34.383V36.9631H96.4003ZM98.3403 37.0028C98.2403 37.0028 98.1603 36.983 98.0803 36.9433C98.0203 36.9036 97.9603 36.8441 97.9203 36.7845L97.6003 36.2486C97.5203 36.1097 97.4203 35.9708 97.3403 35.8715C97.2603 35.7723 97.1403 35.7128 97.0403 35.6731V35.2761C97.1003 35.2563 97.1403 35.2364 97.2003 35.1967C97.2403 35.157 97.2803 35.1173 97.3203 35.0776C97.3603 35.0379 97.4003 34.9784 97.4403 34.9189C97.4803 34.8593 97.5203 34.7998 97.5803 34.7204L97.7803 34.4425C97.8403 34.3433 97.9203 34.2441 98.0003 34.1845C98.0803 34.1051 98.1803 34.0853 98.2803 34.0853C98.3603 34.0853 98.4403 34.1051 98.5003 34.1448C98.5603 34.1845 98.5803 34.2441 98.5803 34.3433C98.5803 34.383 98.5803 34.4028 98.5803 34.4028C98.5003 34.4028 98.4203 34.4227 98.3603 34.4822C98.3003 34.5418 98.2403 34.6013 98.2003 34.6608L97.9603 35.0181C97.9003 35.0975 97.8403 35.1967 97.7803 35.2761C97.7203 35.3555 97.6203 35.415 97.5003 35.4349C97.6203 35.4746 97.7203 35.5341 97.8203 35.6135C97.9003 35.6929 97.9803 35.812 98.0603 35.9311L98.6603 36.9433C98.6003 36.983 98.5403 37.0028 98.4803 37.0028C98.4603 37.0028 98.4403 37.0028 98.4203 37.0028C98.3803 37.0028 98.3603 37.0028 98.3403 37.0028Z" fill="black"/>
<path d="M101.46 36.9631H100.94L100.68 36.2288H99.6002L99.3402 36.9631H98.8402L99.8602 34.125C99.9002 34.1051 99.9402 34.1051 99.9802 34.0853C100.04 34.0654 100.08 34.0654 100.14 34.0654C100.16 34.0654 100.2 34.0654 100.24 34.0654C100.28 34.0654 100.3 34.0853 100.34 34.1051C100.38 34.125 100.4 34.1448 100.42 34.1647C100.44 34.2044 100.46 34.2441 100.48 34.2838L101.46 36.9631ZM100.56 35.8517L100.14 34.5616L99.7202 35.8517H100.56Z" fill="black"/>
<path d="M47.7399 40.5754H48.9399V39.3846C48.9799 39.3846 48.9999 39.3647 49.0399 39.3647C49.0799 39.3647 49.0999 39.3647 49.1199 39.3647C49.1599 39.3647 49.1999 39.3647 49.2399 39.3846C49.2799 39.3846 49.3199 39.4044 49.3399 39.4243C49.3799 39.4441 49.3999 39.4838 49.4199 39.5235C49.4399 39.5632 49.4599 39.6228 49.4599 39.6823V42.2625H48.9599V40.9724H47.7599V42.2625H47.2599V39.3846C47.2999 39.3846 47.3199 39.3647 47.3599 39.3647C47.3999 39.3647 47.4199 39.3647 47.4399 39.3647C47.4799 39.3647 47.5199 39.3647 47.5599 39.3846C47.5999 39.3846 47.6399 39.4044 47.6599 39.4243C47.6999 39.4441 47.7199 39.4838 47.7399 39.5235C47.7599 39.5632 47.7799 39.6228 47.7799 39.6823V40.5754H47.7399Z" fill="black"/>
<path d="M52.6599 40.7939C52.6599 40.9924 52.6399 41.1908 52.5799 41.3893C52.5399 41.5679 52.4599 41.7267 52.3399 41.8656C52.2399 42.0046 52.0999 42.1237 51.9399 42.2031C51.7799 42.2824 51.5799 42.3221 51.3399 42.3221C51.0999 42.3221 50.9199 42.2824 50.7399 42.2031C50.5799 42.1237 50.4399 42.0046 50.3399 41.8656C50.2399 41.7267 50.1599 41.5679 50.1199 41.3893C50.0799 41.2107 50.0599 41.0122 50.0599 40.8137C50.0599 40.6153 50.0799 40.4168 50.1399 40.2382C50.1999 40.0595 50.2799 39.9008 50.3799 39.7618C50.4799 39.6229 50.6199 39.5237 50.7999 39.4443C50.9599 39.3649 51.1599 39.3252 51.3799 39.3252C51.5999 39.3252 51.7999 39.3649 51.9599 39.4443C52.1199 39.5237 52.2599 39.6229 52.3599 39.7618C52.4599 39.9008 52.5399 40.0595 52.5799 40.2382C52.6399 40.3969 52.6599 40.5954 52.6599 40.7939ZM52.1399 40.8137C52.1399 40.6748 52.1199 40.5359 52.0999 40.3969C52.0799 40.258 52.0399 40.1588 51.9799 40.0595C51.9199 39.9603 51.8399 39.8809 51.7399 39.8214C51.6399 39.7618 51.5199 39.742 51.3799 39.742C51.2399 39.742 51.1199 39.7618 51.0199 39.8214C50.9199 39.8809 50.8399 39.9603 50.7799 40.0595C50.7199 40.1588 50.6799 40.2779 50.6399 40.3969C50.6199 40.5359 50.5999 40.655 50.5999 40.8137C50.5999 40.9527 50.6199 41.0916 50.6399 41.2305C50.6599 41.3695 50.6999 41.4885 50.7599 41.5878C50.8199 41.687 50.8999 41.7664 50.9999 41.826C51.0999 41.8855 51.2199 41.9252 51.3599 41.9252C51.4999 41.9252 51.6199 41.8855 51.7199 41.826C51.8199 41.7664 51.8999 41.687 51.9599 41.5878C52.0199 41.4885 52.0599 41.3695 52.0799 41.2305C52.1199 41.0916 52.1399 40.9527 52.1399 40.8137Z" fill="black"/>
<path d="M76.9599 40.5754H78.1599V39.3846C78.1999 39.3846 78.2199 39.3647 78.2599 39.3647C78.2999 39.3647 78.3199 39.3647 78.3399 39.3647C78.3799 39.3647 78.4199 39.3647 78.4599 39.3846C78.4999 39.3846 78.5399 39.4044 78.5599 39.4243C78.5999 39.4441 78.6199 39.4838 78.6399 39.5235C78.6599 39.5632 78.6799 39.6228 78.6799 39.6823V42.2625H78.1799V40.9724H76.9799V42.2625H76.4799V39.3846C76.5199 39.3846 76.5399 39.3647 76.5799 39.3647C76.6199 39.3647 76.6399 39.3647 76.6599 39.3647C76.6999 39.3647 76.7399 39.3647 76.7799 39.3846C76.8199 39.3846 76.8599 39.4044 76.8799 39.4243C76.9199 39.4441 76.9399 39.4838 76.9599 39.5235C76.9799 39.5632 76.9999 39.6228 76.9999 39.6823V40.5754H76.9599Z" fill="black"/>
<path d="M81.8799 40.7939C81.8799 40.9924 81.8599 41.1908 81.7999 41.3893C81.7599 41.5679 81.6799 41.7267 81.5599 41.8656C81.4599 42.0046 81.3199 42.1237 81.1599 42.2031C80.9999 42.2824 80.7999 42.3221 80.5599 42.3221C80.3199 42.3221 80.1399 42.2824 79.9599 42.2031C79.7999 42.1237 79.6599 42.0046 79.5599 41.8656C79.4599 41.7267 79.3799 41.5679 79.3399 41.3893C79.2999 41.2107 79.2799 41.0122 79.2799 40.8137C79.2799 40.6153 79.2999 40.4168 79.3599 40.2382C79.4199 40.0595 79.4999 39.9008 79.5999 39.7618C79.6999 39.6229 79.8399 39.5237 80.0199 39.4443C80.1799 39.3649 80.3799 39.3252 80.5999 39.3252C80.8199 39.3252 81.0199 39.3649 81.1799 39.4443C81.3399 39.5237 81.4799 39.6229 81.5799 39.7618C81.6799 39.9008 81.7599 40.0595 81.7999 40.2382C81.8599 40.3969 81.8799 40.5954 81.8799 40.7939ZM81.3599 40.8137C81.3599 40.6748 81.3399 40.5359 81.3199 40.3969C81.2999 40.258 81.2599 40.1588 81.1999 40.0595C81.1399 39.9603 81.0599 39.8809 80.9599 39.8214C80.8599 39.7618 80.7399 39.742 80.5999 39.742C80.4599 39.742 80.3399 39.7618 80.2399 39.8214C80.1399 39.8809 80.0599 39.9603 79.9999 40.0595C79.9399 40.1588 79.8999 40.2779 79.8599 40.3969C79.8399 40.5359 79.8199 40.655 79.8199 40.8137C79.8199 40.9527 79.8399 41.0916 79.8599 41.2305C79.8799 41.3695 79.9199 41.4885 79.9799 41.5878C80.0399 41.687 80.1199 41.7664 80.2199 41.826C80.3199 41.8855 80.4399 41.9252 80.5799 41.9252C80.7199 41.9252 80.8399 41.8855 80.9399 41.826C81.0399 41.7664 81.1199 41.687 81.1799 41.5878C81.2399 41.4885 81.2799 41.3695 81.2999 41.2305C81.3399 41.0916 81.3599 40.9527 81.3599 40.8137Z" fill="black"/>
<path d="M55.2999 41.4292C55.2999 41.588 55.2799 41.7269 55.2199 41.8261C55.1599 41.9254 55.0799 42.0246 54.9799 42.0841C54.8799 42.1437 54.7599 42.1834 54.5999 42.2231C54.4599 42.2429 54.2999 42.2628 54.1199 42.2628H53.2999V39.4048C53.4399 39.3849 53.5599 39.3849 53.6799 39.3651C53.7999 39.3651 53.9199 39.3452 54.0599 39.3452C54.2799 39.3452 54.4399 39.3651 54.5999 39.3849C54.7399 39.4246 54.8599 39.4643 54.9399 39.5238C55.0199 39.5834 55.0799 39.6628 55.1199 39.762C55.1599 39.8612 55.1799 39.9605 55.1799 40.0796C55.1799 40.1788 55.1599 40.2582 55.1399 40.3376C55.1199 40.417 55.0799 40.4765 55.0399 40.5361C54.9999 40.5956 54.9399 40.6353 54.8999 40.675C54.8399 40.7147 54.7999 40.7345 54.7599 40.7544C54.8199 40.7742 54.8799 40.7941 54.9399 40.8139C54.9999 40.8338 55.0599 40.8735 55.1199 40.933C55.1799 40.9925 55.2199 41.0521 55.2599 41.1315C55.2799 41.2109 55.2999 41.3101 55.2999 41.4292ZM54.6599 40.1193C54.6599 40.0399 54.6399 39.9803 54.6199 39.9208C54.5999 39.8811 54.5599 39.8414 54.4999 39.8017C54.4399 39.7819 54.3799 39.762 54.3199 39.7422C54.2399 39.7223 54.1599 39.7223 54.0799 39.7223C54.0199 39.7223 53.9599 39.7223 53.9199 39.7223C53.8799 39.7223 53.8399 39.7223 53.8199 39.7223V40.5757H54.1599C54.3199 40.5757 54.4399 40.5361 54.5399 40.4368C54.5999 40.3971 54.6599 40.278 54.6599 40.1193ZM53.7999 41.8857H54.0599C54.1799 41.8857 54.2799 41.8857 54.3599 41.8658C54.4399 41.846 54.5199 41.8261 54.5999 41.8063C54.6599 41.7666 54.7199 41.7269 54.7399 41.6673C54.7799 41.6078 54.7999 41.5284 54.7999 41.4292C54.7999 41.3498 54.7799 41.2704 54.7599 41.2109C54.7199 41.1513 54.6799 41.1116 54.6199 41.0719C54.5599 41.0322 54.4999 41.0124 54.4199 40.9925C54.3399 40.9727 54.2599 40.9727 54.1799 40.9727H53.7999V41.8857Z" fill="black"/>
<path d="M58.2399 42.2625H57.7199L57.4599 41.5281H56.3799L56.1199 42.2625H55.6199L56.6399 39.4243C56.6799 39.4044 56.7199 39.4044 56.7599 39.3846C56.8199 39.3647 56.8599 39.3647 56.9199 39.3647C56.9399 39.3647 56.9799 39.3647 57.0199 39.3647C57.0599 39.3647 57.0799 39.3846 57.1199 39.4044C57.1599 39.4243 57.1799 39.4441 57.1999 39.464C57.2199 39.5037 57.2399 39.5434 57.2599 39.5831L58.2399 42.2625ZM57.3399 41.151L56.9199 39.8609L56.4999 41.151H57.3399Z" fill="black"/>
<path d="M70.5399 42.2625H69.9999L69.7399 41.5281H68.6599L68.3999 42.2625H67.8999L68.9199 39.4243C68.9599 39.4044 68.9999 39.4044 69.0399 39.3846C69.0999 39.3647 69.1399 39.3647 69.1999 39.3647C69.2199 39.3647 69.2599 39.3647 69.2999 39.3647C69.3399 39.3647 69.3599 39.3846 69.3999 39.4044C69.4399 39.4243 69.4599 39.4441 69.4799 39.464C69.4999 39.5037 69.5199 39.5434 69.5399 39.5831L70.5399 42.2625ZM69.6399 41.151L69.2199 39.8609L68.7999 41.151H69.6399Z" fill="black"/>
<path d="M65.1799 40.2183C65.1799 40.3969 65.1399 40.5557 65.0799 40.6947C65.0199 40.8137 64.9399 40.9328 64.8199 40.9924C64.7199 41.0718 64.5799 41.1313 64.4399 41.1511C64.2999 41.1908 64.1599 41.1908 63.9999 41.1908H63.7599V42.2427H63.2399V39.3847C63.3599 39.3649 63.4799 39.3649 63.6199 39.345C63.7399 39.345 63.8599 39.3252 63.9799 39.3252C64.3999 39.3252 64.6999 39.4046 64.8799 39.5435C65.0799 39.7221 65.1799 39.9405 65.1799 40.2183ZM64.6599 40.2382C64.6599 40.1389 64.6399 40.0595 64.6199 40C64.5799 39.9405 64.5399 39.8809 64.4999 39.8412C64.4399 39.8015 64.3799 39.7618 64.2999 39.7618C64.2199 39.742 64.1399 39.742 64.0599 39.742C64.0199 39.742 63.9599 39.742 63.9199 39.742C63.8799 39.742 63.8399 39.742 63.7799 39.7618V40.8336H63.9399C64.0599 40.8336 64.1599 40.8336 64.2599 40.8137C64.3599 40.7939 64.4199 40.7542 64.4999 40.7145C64.5599 40.6748 64.5999 40.6153 64.6399 40.5359C64.6399 40.4565 64.6599 40.3573 64.6599 40.2382Z" fill="black"/>
<path d="M75.5599 42.064C75.3799 42.2029 75.0599 42.2823 74.6599 42.2823C74.5599 42.2823 74.4399 42.2823 74.2999 42.2625C74.1799 42.2625 74.0399 42.2426 73.9199 42.2228V39.3647H74.4399V40.4167H74.6799C74.8399 40.4167 74.9799 40.4365 75.1199 40.4563C75.2599 40.496 75.3799 40.5357 75.4999 40.6151C75.5999 40.6945 75.6999 40.7938 75.7599 40.9128C75.8199 41.0319 75.8599 41.1907 75.8599 41.3892C75.8599 41.7067 75.7599 41.9052 75.5599 42.064ZM75.2799 41.0915C75.2399 41.0121 75.1999 40.9525 75.1399 40.9128C75.0799 40.8731 74.9999 40.8335 74.8999 40.8136C74.7999 40.7938 74.6999 40.7938 74.5799 40.7938H74.4199V41.8655C74.4599 41.8655 74.5199 41.8854 74.5599 41.8854C74.5999 41.8854 74.6599 41.8854 74.6999 41.8854C74.7799 41.8854 74.8799 41.8854 74.9399 41.8655C75.0199 41.8457 75.0799 41.8258 75.1399 41.7861C75.1999 41.7464 75.2399 41.6869 75.2599 41.6273C75.2999 41.5678 75.2999 41.4884 75.2999 41.3892C75.3399 41.2701 75.3199 41.1709 75.2799 41.0915Z" fill="black"/>
<path d="M89.1799 42.064C88.9999 42.2029 88.6799 42.2823 88.2799 42.2823C88.1799 42.2823 88.0599 42.2823 87.9199 42.2625C87.7999 42.2625 87.6599 42.2426 87.5399 42.2228V39.3647H88.0599V40.4167H88.2999C88.4599 40.4167 88.5999 40.4365 88.7399 40.4563C88.8799 40.496 88.9999 40.5357 89.1199 40.6151C89.2199 40.6945 89.3199 40.7938 89.3799 40.9128C89.4399 41.0319 89.4799 41.1907 89.4799 41.3892C89.4799 41.7067 89.3799 41.9052 89.1799 42.064ZM88.8999 41.0915C88.8599 41.0121 88.8199 40.9525 88.7599 40.9128C88.6999 40.8731 88.6199 40.8335 88.5199 40.8136C88.4199 40.7938 88.3199 40.7938 88.1999 40.7938H88.0399V41.8655C88.0799 41.8655 88.1399 41.8854 88.1799 41.8854C88.2199 41.8854 88.2799 41.8854 88.3199 41.8854C88.3999 41.8854 88.4999 41.8854 88.5599 41.8655C88.6399 41.8457 88.6999 41.8258 88.7599 41.7861C88.8199 41.7464 88.8599 41.6869 88.8799 41.6273C88.9199 41.5678 88.9199 41.4884 88.9199 41.3892C88.9599 41.2701 88.9399 41.1709 88.8999 41.0915Z" fill="black"/>
<path d="M85.7999 42.2626V39.8016H84.8799C84.8799 39.7619 84.8799 39.742 84.8599 39.7222C84.8599 39.7023 84.8599 39.6825 84.8599 39.6428C84.8599 39.5832 84.8799 39.5038 84.9399 39.4642C84.9999 39.4046 85.0799 39.3848 85.1799 39.3848H87.1999C87.1999 39.4046 87.1999 39.4443 87.1999 39.4642C87.1999 39.484 87.1999 39.5237 87.1999 39.5435C87.1999 39.6229 87.1799 39.6825 87.1199 39.742C87.0799 39.8016 86.9999 39.8214 86.8799 39.8214H86.2799V42.2825H85.7999V42.2626Z" fill="black"/>
<path d="M84.54 42.0245C84.52 42.0443 84.5 42.0642 84.46 42.084C84.42 42.1039 84.36 42.1436 84.3 42.1634C84.24 42.1832 84.16 42.2229 84.06 42.2428C83.96 42.2626 83.86 42.2626 83.74 42.2626C83.52 42.2626 83.32 42.2229 83.16 42.1634C83 42.1039 82.86 41.9848 82.76 41.8657C82.66 41.7466 82.58 41.5878 82.54 41.4092C82.5 41.2306 82.46 41.0321 82.46 40.8336C82.46 40.6153 82.48 40.4367 82.54 40.258C82.6 40.0794 82.68 39.9206 82.78 39.8016C82.88 39.6626 83.02 39.5634 83.18 39.5039C83.34 39.4245 83.52 39.3848 83.74 39.3848C83.84 39.3848 83.94 39.4046 84.04 39.4245C84.14 39.4443 84.2 39.484 84.28 39.5039C84.34 39.5435 84.4 39.5634 84.44 39.6031C84.48 39.6428 84.52 39.6626 84.54 39.7023C84.56 39.7222 84.56 39.742 84.56 39.7619C84.56 39.7817 84.56 39.8016 84.56 39.8214C84.56 39.881 84.54 39.9206 84.5 39.9802C84.46 40.0397 84.42 40.0794 84.38 40.0993C84.34 40.0596 84.3 40.0397 84.26 40C84.22 39.9603 84.18 39.9405 84.12 39.9008C84.06 39.881 84 39.8413 83.94 39.8413C83.88 39.8214 83.8 39.8214 83.72 39.8214C83.56 39.8214 83.44 39.8611 83.34 39.9206C83.24 39.9802 83.16 40.0596 83.1 40.1588C83.04 40.258 83 40.3573 82.96 40.4962C82.94 40.6153 82.92 40.7542 82.92 40.8733C82.92 41.0123 82.94 41.1313 82.96 41.2703C82.98 41.3894 83.04 41.5084 83.1 41.6077C83.16 41.7069 83.24 41.7863 83.36 41.8458C83.46 41.9054 83.6 41.9252 83.76 41.9252C83.84 41.9252 83.92 41.9054 84 41.8855C84.06 41.8657 84.12 41.8458 84.18 41.8061C84.24 41.7863 84.28 41.7466 84.3 41.7069C84.34 41.6672 84.36 41.6474 84.4 41.6275C84.42 41.6474 84.44 41.6672 84.46 41.6871C84.48 41.7069 84.5 41.7466 84.52 41.7665C84.54 41.7863 84.56 41.826 84.56 41.8458C84.58 41.8657 84.58 41.8855 84.58 41.9054C84.58 41.9451 84.58 41.9649 84.56 41.9848C84.58 41.9649 84.56 41.9848 84.54 42.0245Z" fill="black"/>
<path d="M66.1399 41.846H67.1399C67.2599 41.846 67.3399 41.8658 67.3999 41.9254C67.4399 41.9849 67.4799 42.0445 67.4799 42.1238C67.4799 42.1437 67.4799 42.1635 67.4799 42.1834C67.4799 42.2032 67.4799 42.2231 67.4799 42.2429H65.6399V39.3452H67.3999C67.3999 39.3651 67.3999 39.3849 67.4199 39.4048C67.4199 39.4246 67.4199 39.4444 67.4199 39.4841C67.4199 39.5834 67.3999 39.6429 67.3599 39.6826C67.3199 39.7223 67.2199 39.762 67.0999 39.762H66.1599V40.5361H67.1199V40.9528H66.1599V41.846H66.1399Z" fill="black"/>
<path d="M60.3598 39.3651C60.2398 39.3651 60.1199 39.3452 59.9999 39.3452C59.6399 39.3452 59.3799 39.4048 59.1799 39.504C59.1599 39.5238 59.1199 39.5437 59.0999 39.5635C58.9799 39.6628 58.8999 39.7819 58.8599 39.9406C58.8399 40.02 58.8199 40.0994 58.8199 40.1986C58.8199 40.3773 58.8599 40.5361 58.9199 40.675C58.9799 40.7941 59.0599 40.9132 59.1799 40.9727C59.2399 41.0124 59.2999 41.0521 59.3799 41.0719C59.3199 41.1315 59.2599 41.2109 59.2199 41.2903L58.9799 41.6475C58.9399 41.707 58.8799 41.7864 58.8199 41.8261C58.7599 41.8857 58.6799 41.9055 58.5999 41.9055C58.5999 41.9055 58.5999 41.9452 58.5999 41.9651C58.5999 42.0444 58.6199 42.1238 58.6799 42.1635C58.7399 42.2032 58.7999 42.2231 58.8999 42.2231C59.0199 42.2231 59.0999 42.1834 59.1799 42.1238C59.2599 42.0445 59.3399 41.9651 59.3999 41.8658L59.5999 41.588C59.6599 41.5086 59.6999 41.449 59.7399 41.3895C59.7799 41.3299 59.8198 41.2704 59.8598 41.2307C59.8798 41.2109 59.8999 41.2109 59.8999 41.191C59.9399 41.191 59.9799 41.191 60.0199 41.191H60.2598V42.2429H60.7799V39.3849C60.5999 39.3849 60.4798 39.3849 60.3598 39.3651ZM60.2199 40.8338H60.0799H60.0598C59.9398 40.8338 59.8399 40.8338 59.7399 40.8139C59.6399 40.7941 59.5799 40.7544 59.4999 40.7147C59.4399 40.675 59.3999 40.6154 59.3599 40.5361C59.3199 40.4567 59.3199 40.3574 59.3199 40.2582C59.3199 40.159 59.3399 40.0796 59.3599 40.02C59.3799 40.0002 59.3999 39.9605 59.3999 39.9406C59.4199 39.9009 59.4399 39.8811 59.4799 39.8612C59.5399 39.8215 59.5999 39.7819 59.6799 39.7819C59.7599 39.762 59.8399 39.762 59.9199 39.762C59.9599 39.762 60.0198 39.762 60.0598 39.762C60.0998 39.762 60.1399 39.762 60.1999 39.7819V40.8338H60.2199Z" fill="black"/>
<path d="M72.6199 39.6031C72.5999 39.5634 72.5799 39.5237 72.5599 39.484C72.5399 39.4443 72.4999 39.4245 72.4799 39.4245C72.4399 39.4046 72.4199 39.4046 72.3799 39.3848C72.3399 39.3848 72.3199 39.3848 72.2799 39.3848C72.2199 39.3848 72.1599 39.3848 72.1199 39.4046C72.0599 39.4245 72.0199 39.4245 71.9999 39.4443L70.9799 42.2825H71.4799L71.7399 41.5481L71.8399 41.171L72.2599 39.8809L72.6799 41.171L72.7799 41.5481L73.0399 42.2825H73.5599L72.6199 39.6031Z" fill="black"/>
<path d="M35.8 29.4703C29.58 39.3146 22.18 39.3741 22.18 39.3741C26.74 38.1237 31.42 35.6428 34.68 30.5817C37.14 26.771 39 22.0077 39.78 19.884C39.76 18.7329 39.66 17.6016 39.44 16.51L36.36 22.3252C35.86 23.2978 34.72 23.7146 33.86 23.2581C33 22.8016 32.7 21.6504 33.2 20.6779L37.9 11.7863C37.62 11.2107 37.34 10.655 37 10.1191L21.28 39.8703C23.06 39.7512 24.78 39.3939 26.4 38.8184C29.48 37.5481 33.42 34.7894 36.62 28.8749C38.14 26.0367 39 24.2703 39.56 23.0001C39.7 22.0871 39.76 21.1543 39.76 20.2016C38.2 25.481 35.8 29.4703 35.8 29.4703Z" fill="#3D4FA2"/>
<path d="M9.68002 31.1171H7.66002L4.02002 20.5584C4.12002 20.5187 4.26002 20.4988 4.44002 20.479C4.62002 20.4591 4.82002 20.4393 5.02002 20.4393C5.68002 20.4393 6.12002 20.7965 6.34002 21.4912L8.72002 29.1126L11.16 21.4515C11.26 21.1141 11.42 20.8561 11.62 20.6774C11.82 20.4988 12.1 20.4194 12.46 20.4194C12.6 20.4194 12.76 20.4194 12.88 20.4393C13.02 20.4591 13.18 20.4988 13.34 20.5385L9.68002 31.1171Z" fill="white"/>
<path d="M14.36 31.0379V20.499C14.48 20.4791 14.6 20.4593 14.7 20.4593C14.82 20.4395 14.9 20.4395 14.98 20.4395C15.1 20.4395 15.24 20.4593 15.4 20.4791C15.54 20.499 15.68 20.5585 15.8 20.6379C15.92 20.7173 16.02 20.8364 16.1 20.9753C16.18 21.1341 16.22 21.3326 16.22 21.5707V31.0379H14.36V31.0379Z" fill="white"/>
<path d="M17.66 31.0379V20.499C17.78 20.4791 17.9 20.4593 18 20.4593C18.12 20.4395 18.2 20.4395 18.28 20.4395C18.4 20.4395 18.54 20.4593 18.7 20.4791C18.84 20.499 18.98 20.5585 19.1 20.6379C19.22 20.7173 19.32 20.8364 19.4 20.9753C19.48 21.1341 19.52 21.3326 19.52 21.5707V31.0379H17.66V31.0379Z" fill="white"/>
<path d="M20.98 31.0379V20.499C21.1 20.4791 21.22 20.4593 21.32 20.4593C21.44 20.4395 21.52 20.4395 21.6 20.4395C21.72 20.4395 21.86 20.4593 22.02 20.4791C22.16 20.499 22.3 20.5585 22.42 20.6379C22.54 20.7173 22.64 20.8364 22.72 20.9753C22.8 21.1341 22.84 21.3326 22.84 21.5707V31.0379H20.98V31.0379Z" fill="white"/>
</svg>
